# MagicaVoxel @ Ephtracy

# group
o 

# material
mtllib box-0.mtl
usemtl palette

# normals
vn -1 0 0
vn 1 0 0
vn 0 0 1
vn 0 0 -1
vn 0 -1 0
vn 0 1 0

# texcoords
vt 0.970703 0.5
vt 0.974609 0.5
vt 0.978516 0.5

# verts
v -1.6 0.7 1.6
v -1.6 0.7 1.2
v -1.6 1.3 1.6
v -1.6 1.3 1.2
v -1.5 1.3 1.4
v -1.5 1.3 1.2
v -1.5 3.3 1.4
v -1.5 3.3 1.2
v -1.4 1.3 1.5
v -1.4 1.3 1.4
v -1.4 3.3 1.5
v -1.4 3.3 1.4
v -0.9 3 1.5
v -0.9 3 1.4
v -0.9 3.1 1.5
v -0.9 3.1 1.4
v -0.8 2.9 1.5
v -0.8 2.9 1.4
v -0.8 3 1.5
v -0.8 3 1.4
v -0.7 2.8 1.5
v -0.7 2.8 1.4
v -0.7 2.9 1.5
v -0.7 2.9 1.4
v -0.6 2.7 1.5
v -0.6 2.7 1.4
v -0.6 2.8 1.5
v -0.6 2.8 1.4
v -0.5 2.6 1.5
v -0.5 2.6 1.4
v -0.5 2.7 1.5
v -0.5 2.7 1.4
v -0.4 2.5 1.5
v -0.4 2.5 1.4
v -0.4 2.6 1.5
v -0.4 2.6 1.4
v -0.3 2.4 1.5
v -0.3 2.4 1.4
v -0.3 2.5 1.5
v -0.3 2.5 1.4
v -0.2 2.3 1.5
v -0.2 2.3 1.4
v -0.2 2.4 1.5
v -0.2 2.4 1.4
v -0.1 2.2 1.5
v -0.1 2.2 1.4
v -0.1 2.3 1.5
v -0.1 2.3 1.4
v -2.23517e-008 2.1 1.5
v -2.23517e-008 2.1 1.4
v -2.23517e-008 2.2 1.5
v -2.23517e-008 2.2 1.4
v 0.1 2 1.5
v 0.1 2 1.4
v 0.1 2.1 1.5
v 0.1 2.1 1.4
v 0.2 1.9 1.5
v 0.2 1.9 1.4
v 0.2 2 1.5
v 0.2 2 1.4
v 0.3 1.8 1.5
v 0.3 1.8 1.4
v 0.3 1.9 1.5
v 0.3 1.9 1.4
v 0.4 1.7 1.5
v 0.4 1.7 1.4
v 0.4 1.8 1.5
v 0.4 1.8 1.4
v 0.5 1.6 1.5
v 0.5 1.6 1.4
v 0.5 1.7 1.5
v 0.5 1.7 1.4
v 0.6 1.5 1.5
v 0.6 1.5 1.4
v 0.6 1.6 1.5
v 0.6 1.6 1.4
v 0.7 1.4 1.5
v 0.7 1.4 1.4
v 0.7 1.5 1.5
v 0.7 1.5 1.4
v 0.8 1.3 1.5
v 0.8 1.3 1.4
v 0.8 1.4 1.5
v 0.8 1.4 1.4
v 1.1 0.7 1.6
v 1.1 0.7 1.2
v 1.1 0.8 1.4
v 1.1 0.8 1.2
v 1.1 0.9 1.5
v 1.1 0.9 1.4
v 1.1 1.3 1.6
v 1.1 1.3 1.5
v 1.1 1.6 1.5
v 1.1 1.6 1.4
v 1.1 1.7 1.4
v 1.1 1.8 1.4
v 1.1 2.1 1.4
v 1.1 2.2 1.4
v 1.1 2.5 1.4
v 1.1 2.6 1.4
v 1.1 2.9 1.4
v 1.1 3 1.4
v 1.1 3.3 1.5
v 1.1 3.3 1.4
v -1 0.7 1.6
v -1 0.7 1.2
v -1 0.8 1.4
v -1 0.8 1.2
v -1 0.9 1.5
v -1 0.9 1.4
v -1 1.3 1.6
v -1 1.3 1.5
v -1 1.3 1.4
v -1 1.4 1.4
v -1 1.7 1.4
v -1 1.8 1.4
v -1 2.1 1.4
v -1 2.2 1.4
v -1 2.5 1.4
v -1 2.6 1.4
v -1 2.9 1.4
v -1 3 1.4
v -1 3.1 1.5
v -1 3.1 1.4
v -0.6 3.2 1.5
v -0.6 3.2 1.4
v -0.6 3.3 1.5
v -0.6 3.3 1.4
v -0.5 3.1 1.5
v -0.5 3.1 1.4
v -0.5 3.2 1.5
v -0.5 3.2 1.4
v -0.4 3 1.5
v -0.4 3 1.4
v -0.4 3.1 1.5
v -0.4 3.1 1.4
v -0.3 2.9 1.5
v -0.3 2.9 1.4
v -0.3 3 1.5
v -0.3 3 1.4
v -0.2 2.8 1.5
v -0.2 2.8 1.4
v -0.2 2.9 1.5
v -0.2 2.9 1.4
v -0.1 2.7 1.5
v -0.1 2.7 1.4
v -0.1 2.8 1.5
v -0.1 2.8 1.4
v -2.23517e-008 2.6 1.5
v -2.23517e-008 2.6 1.4
v -2.23517e-008 2.7 1.5
v -2.23517e-008 2.7 1.4
v 0.1 2.5 1.5
v 0.1 2.5 1.4
v 0.1 2.6 1.5
v 0.1 2.6 1.4
v 0.2 2.4 1.5
v 0.2 2.4 1.4
v 0.2 2.5 1.5
v 0.2 2.5 1.4
v 0.3 2.3 1.5
v 0.3 2.3 1.4
v 0.3 2.4 1.5
v 0.3 2.4 1.4
v 0.4 2.2 1.5
v 0.4 2.2 1.4
v 0.4 2.3 1.5
v 0.4 2.3 1.4
v 0.5 2.1 1.5
v 0.5 2.1 1.4
v 0.5 2.2 1.5
v 0.5 2.2 1.4
v 0.6 2 1.5
v 0.6 2 1.4
v 0.6 2.1 1.5
v 0.6 2.1 1.4
v 0.7 1.9 1.5
v 0.7 1.9 1.4
v 0.7 2 1.5
v 0.7 2 1.4
v 0.8 1.8 1.5
v 0.8 1.8 1.4
v 0.8 1.9 1.5
v 0.8 1.9 1.4
v 0.9 1.7 1.5
v 0.9 1.7 1.4
v 0.9 1.8 1.5
v 0.9 1.8 1.4
v 1 1.6 1.5
v 1 1.6 1.4
v 1 1.7 1.5
v 1 1.7 1.4
v 1.5 1.3 1.5
v 1.5 1.3 1.4
v 1.5 3.3 1.5
v 1.5 3.3 1.4
v 1.6 1.3 1.4
v 1.6 1.3 1.2
v 1.6 3.3 1.4
v 1.6 3.3 1.2
v 1.7 0.7 1.6
v 1.7 0.7 1.2
v 1.7 1.3 1.6
v 1.7 1.3 1.2
v -1.6 0.7 1.6
v -1.6 1.3 1.6
v -1 0.7 1.6
v -1 1.3 1.6
v 1.1 0.7 1.6
v 1.1 1.3 1.6
v 1.7 0.7 1.6
v 1.7 1.3 1.6
v -1.4 1.3 1.5
v -1.4 3.3 1.5
v -1 0.9 1.5
v -1 1.3 1.5
v -1 3.1 1.5
v -0.9 3 1.5
v -0.9 3.1 1.5
v -0.8 2.9 1.5
v -0.8 3 1.5
v -0.7 2.8 1.5
v -0.7 2.9 1.5
v -0.6 2.7 1.5
v -0.6 2.8 1.5
v -0.6 3.2 1.5
v -0.6 3.3 1.5
v -0.5 2.6 1.5
v -0.5 2.7 1.5
v -0.5 3.1 1.5
v -0.5 3.2 1.5
v -0.4 2.5 1.5
v -0.4 2.6 1.5
v -0.4 3 1.5
v -0.4 3.1 1.5
v -0.3 2.4 1.5
v -0.3 2.5 1.5
v -0.3 2.9 1.5
v -0.3 3 1.5
v -0.2 2.3 1.5
v -0.2 2.4 1.5
v -0.2 2.8 1.5
v -0.2 2.9 1.5
v -0.1 2.2 1.5
v -0.1 2.3 1.5
v -0.1 2.7 1.5
v -0.1 2.8 1.5
v -2.23517e-008 2.1 1.5
v -2.23517e-008 2.2 1.5
v -2.23517e-008 2.6 1.5
v -2.23517e-008 2.7 1.5
v 0.1 2 1.5
v 0.1 2.1 1.5
v 0.1 2.5 1.5
v 0.1 2.6 1.5
v 0.2 1.9 1.5
v 0.2 2 1.5
v 0.2 2.4 1.5
v 0.2 2.5 1.5
v 0.3 1.8 1.5
v 0.3 1.9 1.5
v 0.3 2.3 1.5
v 0.3 2.4 1.5
v 0.4 1.7 1.5
v 0.4 1.8 1.5
v 0.4 2.2 1.5
v 0.4 2.3 1.5
v 0.5 1.6 1.5
v 0.5 1.7 1.5
v 0.5 2.1 1.5
v 0.5 2.2 1.5
v 0.6 1.5 1.5
v 0.6 1.6 1.5
v 0.6 2 1.5
v 0.6 2.1 1.5
v 0.7 1.4 1.5
v 0.7 1.5 1.5
v 0.7 1.9 1.5
v 0.7 2 1.5
v 0.8 1.3 1.5
v 0.8 1.4 1.5
v 0.8 1.8 1.5
v 0.8 1.9 1.5
v 0.9 1.7 1.5
v 0.9 1.8 1.5
v 1 1.6 1.5
v 1 1.7 1.5
v 1.1 0.9 1.5
v 1.1 1.3 1.5
v 1.1 1.6 1.5
v 1.1 3.3 1.5
v 1.5 1.3 1.5
v 1.5 3.3 1.5
v -1.5 1.3 1.4
v -1.5 3.3 1.4
v -1.4 1.3 1.4
v -1.4 3.3 1.4
v -1 0.8 1.4
v -1 0.9 1.4
v -1 1.3 1.4
v -1 1.4 1.4
v -1 1.7 1.4
v -1 1.8 1.4
v -1 2.1 1.4
v -1 2.2 1.4
v -1 2.5 1.4
v -1 2.6 1.4
v -1 2.9 1.4
v -1 3 1.4
v -1 3.1 1.4
v -0.9 3 1.4
v -0.9 3.1 1.4
v -0.8 2.9 1.4
v -0.8 3 1.4
v -0.7 2.8 1.4
v -0.7 2.9 1.4
v -0.6 2.7 1.4
v -0.6 2.8 1.4
v -0.6 3.2 1.4
v -0.6 3.3 1.4
v -0.5 2.6 1.4
v -0.5 2.7 1.4
v -0.5 3.1 1.4
v -0.5 3.2 1.4
v -0.4 2.5 1.4
v -0.4 2.6 1.4
v -0.4 3 1.4
v -0.4 3.1 1.4
v -0.3 2.4 1.4
v -0.3 2.5 1.4
v -0.3 2.9 1.4
v -0.3 3 1.4
v -0.2 2.3 1.4
v -0.2 2.4 1.4
v -0.2 2.8 1.4
v -0.2 2.9 1.4
v -0.1 2.2 1.4
v -0.1 2.3 1.4
v -0.1 2.7 1.4
v -0.1 2.8 1.4
v -2.23517e-008 2.1 1.4
v -2.23517e-008 2.2 1.4
v -2.23517e-008 2.6 1.4
v -2.23517e-008 2.7 1.4
v 0.1 2 1.4
v 0.1 2.1 1.4
v 0.1 2.5 1.4
v 0.1 2.6 1.4
v 0.2 1.9 1.4
v 0.2 2 1.4
v 0.2 2.4 1.4
v 0.2 2.5 1.4
v 0.3 1.8 1.4
v 0.3 1.9 1.4
v 0.3 2.3 1.4
v 0.3 2.4 1.4
v 0.4 1.7 1.4
v 0.4 1.8 1.4
v 0.4 2.2 1.4
v 0.4 2.3 1.4
v 0.5 1.6 1.4
v 0.5 1.7 1.4
v 0.5 2.1 1.4
v 0.5 2.2 1.4
v 0.6 1.5 1.4
v 0.6 1.6 1.4
v 0.6 2 1.4
v 0.6 2.1 1.4
v 0.7 1.4 1.4
v 0.7 1.5 1.4
v 0.7 1.9 1.4
v 0.7 2 1.4
v 0.8 1.3 1.4
v 0.8 1.4 1.4
v 0.8 1.8 1.4
v 0.8 1.9 1.4
v 0.9 1.7 1.4
v 0.9 1.8 1.4
v 1 1.6 1.4
v 1 1.7 1.4
v 1.1 0.8 1.4
v 1.1 0.9 1.4
v 1.1 1.6 1.4
v 1.1 1.7 1.4
v 1.1 1.8 1.4
v 1.1 2.1 1.4
v 1.1 2.2 1.4
v 1.1 2.5 1.4
v 1.1 2.6 1.4
v 1.1 2.9 1.4
v 1.1 3 1.4
v 1.1 3.3 1.4
v 1.5 1.3 1.4
v 1.5 3.3 1.4
v 1.6 1.3 1.4
v 1.6 3.3 1.4
v -1.6 0.7 1.2
v -1.6 1.3 1.2
v -1.5 0.8 1.2
v -1.5 1.3 1.2
v -1.5 3.3 1.2
v -1 0.7 1.2
v -1 0.8 1.2
v 1.1 0.7 1.2
v 1.1 0.8 1.2
v 1.6 0.8 1.2
v 1.6 1.3 1.2
v 1.6 3.3 1.2
v 1.7 0.7 1.2
v 1.7 1.3 1.2
v -1.6 0.7 1.6
v -1 0.7 1.6
v 1.1 0.7 1.6
v 1.7 0.7 1.6
v -1.6 0.7 1.2
v -1 0.7 1.2
v 1.1 0.7 1.2
v 1.7 0.7 1.2
v -1 0.8 1.4
v 1.1 0.8 1.4
v -1 0.8 1.2
v 1.1 0.8 1.2
v -1 0.9 1.5
v 1.1 0.9 1.5
v -1 0.9 1.4
v 1.1 0.9 1.4
v 0.7 1.4 1.5
v 0.8 1.4 1.5
v 0.7 1.4 1.4
v 0.8 1.4 1.4
v 0.6 1.5 1.5
v 0.7 1.5 1.5
v 0.6 1.5 1.4
v 0.7 1.5 1.4
v 0.5 1.6 1.5
v 0.6 1.6 1.5
v 0.5 1.6 1.4
v 0.6 1.6 1.4
v 0.4 1.7 1.5
v 0.5 1.7 1.5
v 0.4 1.7 1.4
v 0.5 1.7 1.4
v 0.3 1.8 1.5
v 0.4 1.8 1.5
v 0.3 1.8 1.4
v 0.4 1.8 1.4
v 0.2 1.9 1.5
v 0.3 1.9 1.5
v 0.2 1.9 1.4
v 0.3 1.9 1.4
v 0.1 2 1.5
v 0.2 2 1.5
v 0.1 2 1.4
v 0.2 2 1.4
v -2.23517e-008 2.1 1.5
v 0.1 2.1 1.5
v -2.23517e-008 2.1 1.4
v 0.1 2.1 1.4
v -0.1 2.2 1.5
v -2.23517e-008 2.2 1.5
v -0.1 2.2 1.4
v -2.23517e-008 2.2 1.4
v -0.2 2.3 1.5
v -0.1 2.3 1.5
v -0.2 2.3 1.4
v -0.1 2.3 1.4
v -0.3 2.4 1.5
v -0.2 2.4 1.5
v -0.3 2.4 1.4
v -0.2 2.4 1.4
v -0.4 2.5 1.5
v -0.3 2.5 1.5
v -0.4 2.5 1.4
v -0.3 2.5 1.4
v -0.5 2.6 1.5
v -0.4 2.6 1.5
v -0.5 2.6 1.4
v -0.4 2.6 1.4
v -0.6 2.7 1.5
v -0.5 2.7 1.5
v -0.6 2.7 1.4
v -0.5 2.7 1.4
v -0.7 2.8 1.5
v -0.6 2.8 1.5
v -0.7 2.8 1.4
v -0.6 2.8 1.4
v -0.8 2.9 1.5
v -0.7 2.9 1.5
v -0.8 2.9 1.4
v -0.7 2.9 1.4
v -0.9 3 1.5
v -0.8 3 1.5
v -0.9 3 1.4
v -0.8 3 1.4
v -1 3.1 1.5
v -0.9 3.1 1.5
v -1 3.1 1.4
v -0.9 3.1 1.4
v -1.6 1.3 1.6
v -1 1.3 1.6
v 1.1 1.3 1.6
v 1.7 1.3 1.6
v -1.4 1.3 1.5
v -1 1.3 1.5
v 0.8 1.3 1.5
v 1.1 1.3 1.5
v 1.5 1.3 1.5
v -1.5 1.3 1.4
v -1.4 1.3 1.4
v -1 1.3 1.4
v 0.8 1.3 1.4
v 1.5 1.3 1.4
v 1.6 1.3 1.4
v -1.6 1.3 1.2
v -1.5 1.3 1.2
v 1.6 1.3 1.2
v 1.7 1.3 1.2
v 1 1.6 1.5
v 1.1 1.6 1.5
v 1 1.6 1.4
v 1.1 1.6 1.4
v 0.9 1.7 1.5
v 1 1.7 1.5
v 0.9 1.7 1.4
v 1 1.7 1.4
v 0.8 1.8 1.5
v 0.9 1.8 1.5
v 0.8 1.8 1.4
v 0.9 1.8 1.4
v 0.7 1.9 1.5
v 0.8 1.9 1.5
v 0.7 1.9 1.4
v 0.8 1.9 1.4
v 0.6 2 1.5
v 0.7 2 1.5
v 0.6 2 1.4
v 0.7 2 1.4
v 0.5 2.1 1.5
v 0.6 2.1 1.5
v 0.5 2.1 1.4
v 0.6 2.1 1.4
v 0.4 2.2 1.5
v 0.5 2.2 1.5
v 0.4 2.2 1.4
v 0.5 2.2 1.4
v 0.3 2.3 1.5
v 0.4 2.3 1.5
v 0.3 2.3 1.4
v 0.4 2.3 1.4
v 0.2 2.4 1.5
v 0.3 2.4 1.5
v 0.2 2.4 1.4
v 0.3 2.4 1.4
v 0.1 2.5 1.5
v 0.2 2.5 1.5
v 0.1 2.5 1.4
v 0.2 2.5 1.4
v -2.23517e-008 2.6 1.5
v 0.1 2.6 1.5
v -2.23517e-008 2.6 1.4
v 0.1 2.6 1.4
v -0.1 2.7 1.5
v -2.23517e-008 2.7 1.5
v -0.1 2.7 1.4
v -2.23517e-008 2.7 1.4
v -0.2 2.8 1.5
v -0.1 2.8 1.5
v -0.2 2.8 1.4
v -0.1 2.8 1.4
v -0.3 2.9 1.5
v -0.2 2.9 1.5
v -0.3 2.9 1.4
v -0.2 2.9 1.4
v -0.4 3 1.5
v -0.3 3 1.5
v -0.4 3 1.4
v -0.3 3 1.4
v -0.5 3.1 1.5
v -0.4 3.1 1.5
v -0.5 3.1 1.4
v -0.4 3.1 1.4
v -0.6 3.2 1.5
v -0.5 3.2 1.5
v -0.6 3.2 1.4
v -0.5 3.2 1.4
v -1.4 3.3 1.5
v -0.6 3.3 1.5
v 1.1 3.3 1.5
v 1.5 3.3 1.5
v -1.5 3.3 1.4
v -1.4 3.3 1.4
v -0.6 3.3 1.4
v 1.1 3.3 1.4
v 1.5 3.3 1.4
v 1.6 3.3 1.4
v -1.5 3.3 1.2
v 1.6 3.3 1.2

# faces
f 3/3/1 2/3/1 1/3/1
f 4/3/1 2/3/1 3/3/1
f 7/1/1 6/1/1 5/1/1
f 8/1/1 6/1/1 7/1/1
f 11/1/1 10/1/1 9/1/1
f 12/1/1 10/1/1 11/1/1
f 15/1/1 14/1/1 13/1/1
f 16/1/1 14/1/1 15/1/1
f 19/1/1 18/1/1 17/1/1
f 20/1/1 18/1/1 19/1/1
f 23/1/1 22/1/1 21/1/1
f 24/1/1 22/1/1 23/1/1
f 27/1/1 26/1/1 25/1/1
f 28/1/1 26/1/1 27/1/1
f 31/1/1 30/1/1 29/1/1
f 32/1/1 30/1/1 31/1/1
f 35/1/1 34/1/1 33/1/1
f 36/1/1 34/1/1 35/1/1
f 39/1/1 38/1/1 37/1/1
f 40/1/1 38/1/1 39/1/1
f 43/1/1 42/1/1 41/1/1
f 44/1/1 42/1/1 43/1/1
f 47/1/1 46/1/1 45/1/1
f 48/1/1 46/1/1 47/1/1
f 51/1/1 50/1/1 49/1/1
f 52/1/1 50/1/1 51/1/1
f 55/1/1 54/1/1 53/1/1
f 56/1/1 54/1/1 55/1/1
f 59/1/1 58/1/1 57/1/1
f 60/1/1 58/1/1 59/1/1
f 63/1/1 62/1/1 61/1/1
f 64/1/1 62/1/1 63/1/1
f 67/1/1 66/1/1 65/1/1
f 68/1/1 66/1/1 67/1/1
f 71/1/1 70/1/1 69/1/1
f 72/1/1 70/1/1 71/1/1
f 75/1/1 74/1/1 73/1/1
f 76/1/1 74/1/1 75/1/1
f 79/1/1 78/1/1 77/1/1
f 80/1/1 78/1/1 79/1/1
f 83/1/1 82/1/1 81/1/1
f 84/1/1 82/1/1 83/1/1
f 87/3/1 86/3/1 85/3/1
f 88/3/1 86/3/1 87/3/1
f 89/3/1 87/3/1 85/3/1
f 90/3/1 87/3/1 89/3/1
f 91/3/1 89/3/1 85/3/1
f 92/3/1 89/3/1 91/3/1
f 95/1/1 94/1/1 93/1/1
f 96/1/1 95/1/1 93/1/1
f 97/1/1 96/1/1 93/1/1
f 98/1/1 97/1/1 93/1/1
f 99/1/1 98/1/1 93/1/1
f 100/1/1 99/1/1 93/1/1
f 101/1/1 100/1/1 93/1/1
f 102/1/1 101/1/1 93/1/1
f 103/1/1 102/1/1 93/1/1
f 104/1/1 102/1/1 103/1/1
f 105/3/2 106/3/2 107/3/2
f 107/3/2 106/3/2 108/3/2
f 105/3/2 107/3/2 109/3/2
f 109/3/2 107/3/2 110/3/2
f 105/3/2 109/3/2 111/3/2
f 111/3/2 109/3/2 112/3/2
f 112/1/2 113/1/2 114/1/2
f 112/1/2 114/1/2 115/1/2
f 112/1/2 115/1/2 116/1/2
f 112/1/2 116/1/2 117/1/2
f 112/1/2 117/1/2 118/1/2
f 112/1/2 118/1/2 119/1/2
f 112/1/2 119/1/2 120/1/2
f 112/1/2 120/1/2 121/1/2
f 112/1/2 121/1/2 122/1/2
f 112/1/2 122/1/2 123/1/2
f 123/1/2 122/1/2 124/1/2
f 125/1/2 126/1/2 127/1/2
f 127/1/2 126/1/2 128/1/2
f 129/1/2 130/1/2 131/1/2
f 131/1/2 130/1/2 132/1/2
f 133/1/2 134/1/2 135/1/2
f 135/1/2 134/1/2 136/1/2
f 137/1/2 138/1/2 139/1/2
f 139/1/2 138/1/2 140/1/2
f 141/1/2 142/1/2 143/1/2
f 143/1/2 142/1/2 144/1/2
f 145/1/2 146/1/2 147/1/2
f 147/1/2 146/1/2 148/1/2
f 149/1/2 150/1/2 151/1/2
f 151/1/2 150/1/2 152/1/2
f 153/1/2 154/1/2 155/1/2
f 155/1/2 154/1/2 156/1/2
f 157/1/2 158/1/2 159/1/2
f 159/1/2 158/1/2 160/1/2
f 161/1/2 162/1/2 163/1/2
f 163/1/2 162/1/2 164/1/2
f 165/1/2 166/1/2 167/1/2
f 167/1/2 166/1/2 168/1/2
f 169/1/2 170/1/2 171/1/2
f 171/1/2 170/1/2 172/1/2
f 173/1/2 174/1/2 175/1/2
f 175/1/2 174/1/2 176/1/2
f 177/1/2 178/1/2 179/1/2
f 179/1/2 178/1/2 180/1/2
f 181/1/2 182/1/2 183/1/2
f 183/1/2 182/1/2 184/1/2
f 185/1/2 186/1/2 187/1/2
f 187/1/2 186/1/2 188/1/2
f 189/1/2 190/1/2 191/1/2
f 191/1/2 190/1/2 192/1/2
f 193/1/2 194/1/2 195/1/2
f 195/1/2 194/1/2 196/1/2
f 197/1/2 198/1/2 199/1/2
f 199/1/2 198/1/2 200/1/2
f 201/3/2 202/3/2 203/3/2
f 203/3/2 202/3/2 204/3/2
f 207/3/3 206/3/3 205/3/3
f 208/3/3 206/3/3 207/3/3
f 211/3/3 210/3/3 209/3/3
f 212/3/3 210/3/3 211/3/3
f 216/1/3 214/1/3 213/1/3
f 217/1/3 214/1/3 216/1/3
f 219/1/3 214/1/3 217/1/3
f 221/1/3 219/1/3 218/1/3
f 223/1/3 221/1/3 220/1/3
f 225/1/3 223/1/3 222/1/3
f 226/1/3 214/1/3 219/1/3
f 226/1/3 219/1/3 221/1/3
f 226/1/3 223/1/3 225/1/3
f 226/1/3 221/1/3 223/1/3
f 227/1/3 214/1/3 226/1/3
f 229/1/3 225/1/3 224/1/3
f 229/1/3 226/1/3 225/1/3
f 230/1/3 226/1/3 229/1/3
f 231/1/3 226/1/3 230/1/3
f 233/1/3 229/1/3 228/1/3
f 233/1/3 230/1/3 229/1/3
f 234/1/3 230/1/3 233/1/3
f 235/1/3 230/1/3 234/1/3
f 237/1/3 233/1/3 232/1/3
f 237/1/3 234/1/3 233/1/3
f 238/1/3 234/1/3 237/1/3
f 239/1/3 234/1/3 238/1/3
f 241/1/3 237/1/3 236/1/3
f 241/1/3 238/1/3 237/1/3
f 242/1/3 238/1/3 241/1/3
f 243/1/3 238/1/3 242/1/3
f 245/1/3 241/1/3 240/1/3
f 245/1/3 242/1/3 241/1/3
f 246/1/3 242/1/3 245/1/3
f 247/1/3 242/1/3 246/1/3
f 249/1/3 245/1/3 244/1/3
f 249/1/3 246/1/3 245/1/3
f 250/1/3 246/1/3 249/1/3
f 251/1/3 246/1/3 250/1/3
f 253/1/3 249/1/3 248/1/3
f 253/1/3 250/1/3 249/1/3
f 254/1/3 250/1/3 253/1/3
f 255/1/3 250/1/3 254/1/3
f 257/1/3 253/1/3 252/1/3
f 257/1/3 254/1/3 253/1/3
f 258/1/3 254/1/3 257/1/3
f 259/1/3 254/1/3 258/1/3
f 261/1/3 257/1/3 256/1/3
f 261/1/3 258/1/3 257/1/3
f 262/1/3 258/1/3 261/1/3
f 263/1/3 258/1/3 262/1/3
f 265/1/3 261/1/3 260/1/3
f 265/1/3 262/1/3 261/1/3
f 266/1/3 262/1/3 265/1/3
f 267/1/3 262/1/3 266/1/3
f 269/1/3 265/1/3 264/1/3
f 269/1/3 266/1/3 265/1/3
f 270/1/3 266/1/3 269/1/3
f 271/1/3 266/1/3 270/1/3
f 273/1/3 269/1/3 268/1/3
f 273/1/3 270/1/3 269/1/3
f 274/1/3 270/1/3 273/1/3
f 275/1/3 270/1/3 274/1/3
f 277/1/3 273/1/3 272/1/3
f 277/1/3 274/1/3 273/1/3
f 278/1/3 274/1/3 277/1/3
f 279/1/3 274/1/3 278/1/3
f 280/1/3 216/1/3 215/1/3
f 281/1/3 277/1/3 276/1/3
f 281/1/3 278/1/3 277/1/3
f 282/1/3 278/1/3 281/1/3
f 283/1/3 278/1/3 282/1/3
f 284/1/3 281/1/3 280/1/3
f 284/1/3 282/1/3 281/1/3
f 285/1/3 282/1/3 284/1/3
f 286/1/3 284/1/3 280/1/3
f 287/1/3 284/1/3 286/1/3
f 288/1/3 280/1/3 215/1/3
f 288/1/3 286/1/3 280/1/3
f 289/1/3 286/1/3 288/1/3
f 290/1/3 286/1/3 289/1/3
f 292/1/3 290/1/3 289/1/3
f 292/1/3 291/1/3 290/1/3
f 293/1/3 291/1/3 292/1/3
f 296/1/3 295/1/3 294/1/3
f 297/1/3 295/1/3 296/1/3
f 311/2/3 309/2/3 308/2/3
f 311/1/3 310/1/3 309/1/3
f 312/1/3 310/1/3 311/1/3
f 313/1/3 308/1/3 307/1/3
f 313/2/3 311/2/3 308/2/3
f 314/2/3 311/2/3 313/2/3
f 315/1/3 313/1/3 307/1/3
f 316/1/3 313/1/3 315/1/3
f 317/1/3 315/1/3 307/1/3
f 318/1/3 315/1/3 317/1/3
f 321/2/3 307/2/3 306/2/3
f 321/1/3 317/1/3 307/1/3
f 322/1/3 317/1/3 321/1/3
f 324/1/3 320/1/3 319/1/3
f 325/1/3 306/1/3 305/1/3
f 325/2/3 321/2/3 306/2/3
f 326/2/3 321/2/3 325/2/3
f 328/1/3 324/1/3 323/1/3
f 329/1/3 325/1/3 305/1/3
f 330/1/3 325/1/3 329/1/3
f 332/1/3 328/1/3 327/1/3
f 333/1/3 329/1/3 305/1/3
f 334/1/3 329/1/3 333/1/3
f 336/2/3 332/2/3 331/2/3
f 337/2/3 305/2/3 304/2/3
f 337/1/3 333/1/3 305/1/3
f 338/1/3 333/1/3 337/1/3
f 340/1/3 336/1/3 335/1/3
f 341/1/3 304/1/3 303/1/3
f 341/2/3 337/2/3 304/2/3
f 342/2/3 337/2/3 341/2/3
f 344/1/3 340/1/3 339/1/3
f 345/1/3 341/1/3 303/1/3
f 346/1/3 341/1/3 345/1/3
f 348/1/3 344/1/3 343/1/3
f 349/1/3 345/1/3 303/1/3
f 350/1/3 345/1/3 349/1/3
f 352/2/3 348/2/3 347/2/3
f 353/2/3 303/2/3 302/2/3
f 353/1/3 349/1/3 303/1/3
f 354/1/3 349/1/3 353/1/3
f 356/1/3 352/1/3 351/1/3
f 357/1/3 302/1/3 301/1/3
f 357/2/3 353/2/3 302/2/3
f 358/2/3 353/2/3 357/2/3
f 360/1/3 356/1/3 355/1/3
f 361/1/3 357/1/3 301/1/3
f 362/1/3 357/1/3 361/1/3
f 364/1/3 360/1/3 359/1/3
f 365/1/3 361/1/3 301/1/3
f 366/1/3 361/1/3 365/1/3
f 368/2/3 364/2/3 363/2/3
f 369/2/3 301/2/3 300/2/3
f 369/1/3 365/1/3 301/1/3
f 370/1/3 365/1/3 369/1/3
f 372/1/3 368/1/3 367/1/3
f 373/2/3 369/2/3 300/2/3
f 374/2/3 369/2/3 373/2/3
f 376/1/3 372/1/3 371/1/3
f 378/1/3 376/1/3 375/1/3
f 380/2/3 378/2/3 377/2/3
f 381/1/3 299/1/3 298/1/3
f 382/1/3 299/1/3 381/1/3
f 383/1/3 380/1/3 379/1/3
f 384/2/3 378/2/3 380/2/3
f 384/1/3 380/1/3 383/1/3
f 385/1/3 376/1/3 378/1/3
f 385/2/3 378/2/3 384/2/3
f 386/1/3 372/1/3 376/1/3
f 386/1/3 376/1/3 385/1/3
f 386/2/3 364/2/3 368/2/3
f 386/1/3 368/1/3 372/1/3
f 387/1/3 360/1/3 364/1/3
f 387/2/3 364/2/3 386/2/3
f 388/1/3 352/1/3 356/1/3
f 388/1/3 360/1/3 387/1/3
f 388/2/3 348/2/3 352/2/3
f 388/1/3 356/1/3 360/1/3
f 389/1/3 344/1/3 348/1/3
f 389/2/3 348/2/3 388/2/3
f 390/1/3 336/1/3 340/1/3
f 390/1/3 344/1/3 389/1/3
f 390/2/3 332/2/3 336/2/3
f 390/1/3 340/1/3 344/1/3
f 391/1/3 328/1/3 332/1/3
f 391/2/3 332/2/3 390/2/3
f 392/1/3 320/1/3 324/1/3
f 392/1/3 328/1/3 391/1/3
f 392/1/3 324/1/3 328/1/3
f 395/1/3 394/1/3 393/1/3
f 396/1/3 394/1/3 395/1/3
f 397/3/4 398/3/4 399/3/4
f 399/3/4 398/3/4 400/3/4
f 397/3/4 399/3/4 402/3/4
f 400/1/4 401/1/4 403/1/4
f 402/3/4 399/3/4 403/3/4
f 399/1/4 400/1/4 403/1/4
f 403/1/4 401/1/4 405/1/4
f 405/1/4 401/1/4 406/1/4
f 404/3/4 405/3/4 406/3/4
f 406/1/4 401/1/4 407/1/4
f 407/1/4 401/1/4 408/1/4
f 404/3/4 406/3/4 409/3/4
f 406/3/4 407/3/4 409/3/4
f 409/3/4 407/3/4 410/3/4
f 415/3/5 412/3/5 411/3/5
f 416/3/5 412/3/5 415/3/5
f 417/3/5 414/3/5 413/3/5
f 418/3/5 414/3/5 417/3/5
f 421/1/5 420/1/5 419/1/5
f 422/1/5 420/1/5 421/1/5
f 425/1/5 424/1/5 423/1/5
f 426/1/5 424/1/5 425/1/5
f 429/1/5 428/1/5 427/1/5
f 430/1/5 428/1/5 429/1/5
f 433/1/5 432/1/5 431/1/5
f 434/1/5 432/1/5 433/1/5
f 437/1/5 436/1/5 435/1/5
f 438/1/5 436/1/5 437/1/5
f 441/1/5 440/1/5 439/1/5
f 442/1/5 440/1/5 441/1/5
f 445/1/5 444/1/5 443/1/5
f 446/1/5 444/1/5 445/1/5
f 449/1/5 448/1/5 447/1/5
f 450/1/5 448/1/5 449/1/5
f 453/1/5 452/1/5 451/1/5
f 454/1/5 452/1/5 453/1/5
f 457/1/5 456/1/5 455/1/5
f 458/1/5 456/1/5 457/1/5
f 461/1/5 460/1/5 459/1/5
f 462/1/5 460/1/5 461/1/5
f 465/1/5 464/1/5 463/1/5
f 466/1/5 464/1/5 465/1/5
f 469/1/5 468/1/5 467/1/5
f 470/1/5 468/1/5 469/1/5
f 473/1/5 472/1/5 471/1/5
f 474/1/5 472/1/5 473/1/5
f 477/1/5 476/1/5 475/1/5
f 478/1/5 476/1/5 477/1/5
f 481/1/5 480/1/5 479/1/5
f 482/1/5 480/1/5 481/1/5
f 485/1/5 484/1/5 483/1/5
f 486/1/5 484/1/5 485/1/5
f 489/1/5 488/1/5 487/1/5
f 490/1/5 488/1/5 489/1/5
f 493/1/5 492/1/5 491/1/5
f 494/1/5 492/1/5 493/1/5
f 497/1/5 496/1/5 495/1/5
f 498/1/5 496/1/5 497/1/5
f 499/3/6 500/3/6 503/3/6
f 503/3/6 500/3/6 504/3/6
f 501/3/6 502/3/6 506/3/6
f 506/3/6 502/3/6 507/3/6
f 499/3/6 503/3/6 508/3/6
f 508/3/6 503/3/6 509/3/6
f 504/1/6 505/1/6 510/1/6
f 510/1/6 505/1/6 511/1/6
f 507/3/6 502/3/6 512/3/6
f 512/3/6 502/3/6 513/3/6
f 499/3/6 508/3/6 514/3/6
f 514/3/6 508/3/6 515/3/6
f 513/3/6 502/3/6 516/3/6
f 516/3/6 502/3/6 517/3/6
f 518/1/6 519/1/6 520/1/6
f 520/1/6 519/1/6 521/1/6
f 522/1/6 523/1/6 524/1/6
f 524/1/6 523/1/6 525/1/6
f 526/1/6 527/1/6 528/1/6
f 528/1/6 527/1/6 529/1/6
f 530/1/6 531/1/6 532/1/6
f 532/1/6 531/1/6 533/1/6
f 534/1/6 535/1/6 536/1/6
f 536/1/6 535/1/6 537/1/6
f 538/1/6 539/1/6 540/1/6
f 540/1/6 539/1/6 541/1/6
f 542/1/6 543/1/6 544/1/6
f 544/1/6 543/1/6 545/1/6
f 546/1/6 547/1/6 548/1/6
f 548/1/6 547/1/6 549/1/6
f 550/1/6 551/1/6 552/1/6
f 552/1/6 551/1/6 553/1/6
f 554/1/6 555/1/6 556/1/6
f 556/1/6 555/1/6 557/1/6
f 558/1/6 559/1/6 560/1/6
f 560/1/6 559/1/6 561/1/6
f 562/1/6 563/1/6 564/1/6
f 564/1/6 563/1/6 565/1/6
f 566/1/6 567/1/6 568/1/6
f 568/1/6 567/1/6 569/1/6
f 570/1/6 571/1/6 572/1/6
f 572/1/6 571/1/6 573/1/6
f 574/1/6 575/1/6 576/1/6
f 576/1/6 575/1/6 577/1/6
f 578/1/6 579/1/6 580/1/6
f 580/1/6 579/1/6 581/1/6
f 582/1/6 583/1/6 584/1/6
f 584/1/6 583/1/6 585/1/6
f 586/1/6 587/1/6 591/1/6
f 591/1/6 587/1/6 592/1/6
f 588/1/6 589/1/6 593/1/6
f 593/1/6 589/1/6 594/1/6
f 591/1/6 592/1/6 596/1/6
f 594/1/6 595/1/6 596/1/6
f 593/1/6 594/1/6 596/1/6
f 592/1/6 593/1/6 596/1/6
f 590/1/6 591/1/6 596/1/6
f 596/1/6 595/1/6 597/1/6
