# MagicaVoxel @ Ephtracy

# group
o 

# material
mtllib bullet turrets v1-4.mtl
usemtl palette

# normals
vn -1 0 0
vn 1 0 0
vn 0 0 1
vn 0 0 -1
vn 0 -1 0
vn 0 1 0

# texcoords
vt 0.943359 0.5
vt 0.947266 0.5
vt 0.955078 0.5
vt 0.970703 0.5
vt 0.990234 0.5

# verts
v -0.3 -2.23517e-08 0.1
v -0.3 -2.23517e-08 -0.1
v -0.3 0.1 0.1
v -0.3 0.1 -0.1
v -0.3 0.2 0
v -0.3 0.2 -0.1
v -0.3 0.3 -0.1
v -0.3 0.3 -0.2
v -0.3 0.4 0
v -0.3 0.4 -0.2
v -0.3 0.4 -0.3
v -0.3 0.4 -0.7
v -0.3 0.5 -0.2
v -0.3 0.5 -0.3
v -0.3 0.5 -0.7
v -0.3 0.6 -0.3
v -0.3 0.6 -0.7
v -0.2 -2.23517e-08 0.2
v -0.2 -2.23517e-08 0.1
v -0.2 -2.23517e-08 -0.1
v -0.2 -2.23517e-08 -0.3
v -0.2 0.1 0.2
v -0.2 0.1 0.1
v -0.2 0.1 -0.1
v -0.2 0.1 -0.3
v -0.2 0.2 0.1
v -0.2 0.2 0
v -0.2 0.2 -0.1
v -0.2 0.2 -0.2
v -0.2 0.2 -0.3
v -0.2 0.3 -0.1
v -0.2 0.3 -0.2
v -0.2 0.3 -0.4
v -0.2 0.3 -0.6
v -0.2 0.4 0.4
v -0.2 0.4 0.1
v -0.2 0.4 0
v -0.2 0.4 -0.2
v -0.2 0.4 -0.4
v -0.2 0.4 -0.6
v -0.2 0.4 -0.7
v -0.2 0.4 -0.8
v -0.2 0.5 0.4
v -0.2 0.5 0
v -0.2 0.5 -0.2
v -0.2 0.5 -0.3
v -0.2 0.5 -0.7
v -0.2 0.5 -0.8
v -0.2 0.6 0.4
v -0.2 0.6 0
v -0.2 0.6 -0.2
v -0.2 0.6 -0.3
v -0.2 0.6 -0.7
v -0.2 0.6 -0.8
v -0.2 0.7 -0.3
v -0.2 0.7 -0.7
v -0.1 0.1 0.2
v -0.1 0.1 0.1
v -0.1 0.2 0.2
v -0.1 0.2 0.1
v -0.1 0.2 -0.2
v -0.1 0.2 -0.3
v -0.1 0.2 -0.4
v -0.1 0.2 -0.6
v -0.1 0.3 0.3
v -0.1 0.3 0.2
v -0.1 0.3 -0.3
v -0.1 0.3 -0.4
v -0.1 0.3 -0.6
v -0.1 0.3 -0.7
v -0.1 0.4 0.5
v -0.1 0.4 0.4
v -0.1 0.4 0.3
v -0.1 0.4 0.1
v -0.1 0.4 -0.2
v -0.1 0.4 -0.3
v -0.1 0.4 -0.4
v -0.1 0.4 -0.6
v -0.1 0.4 -0.7
v -0.1 0.5 0.6
v -0.1 0.5 0.5
v -0.1 0.5 0.4
v -0.1 0.5 0
v -0.1 0.5 -0.2
v -0.1 0.6 0.6
v -0.1 0.6 0.4
v -0.1 0.6 0.3
v -0.1 0.6 0.1
v -0.1 0.6 0
v -0.1 0.6 -0.2
v -0.1 0.6 -0.3
v -0.1 0.7 0.3
v -0.1 0.7 0.1
v -0.1 0.7 -0.2
v -0.1 0.7 -0.3
v -0.1 0.7 -0.4
v -0.1 0.7 -0.6
v -0.1 0.8 -0.4
v -0.1 0.8 -0.6
v 0 0.2 0.3
v 0 0.2 0.2
v 0 0.3 0.4
v 0 0.3 0.3
v 0 0.3 0.2
v 0 0.4 0.6
v 0 0.4 0.5
v 0 0.4 0.4
v 0 0.4 0.3
v 0 0.5 0.8
v 0 0.5 0.6
v 0 0.5 0.5
v 0 0.6 0.8
v 0 0.6 0.6
v 0 0.6 0.5
v 0 0.6 0.4
v 0 0.6 0.3
v 0 0.6 0.1
v 0 0.6 0
v 0 0.6 -0.2
v 0 0.7 0.5
v 0 0.7 0.3
v 0 0.7 0.1
v 0 0.7 -0.2
v 0.1 -2.23517e-08 0
v 0.1 -2.23517e-08 -0.1
v 0.1 0.1 0
v 0.1 0.1 -0.1
v 0 -2.23517e-08 0
v 0 -2.23517e-08 -0.1
v 0 0.1 0
v 0 0.1 -0.1
v 0.1 0.2 0.3
v 0.1 0.2 0.2
v 0.1 0.3 0.4
v 0.1 0.3 0.3
v 0.1 0.3 0.2
v 0.1 0.4 0.6
v 0.1 0.4 0.5
v 0.1 0.4 0.4
v 0.1 0.4 0.3
v 0.1 0.5 0.8
v 0.1 0.5 0.6
v 0.1 0.5 0.5
v 0.1 0.6 0.8
v 0.1 0.6 0.6
v 0.1 0.6 0.5
v 0.1 0.6 0.4
v 0.1 0.6 0.3
v 0.1 0.6 0.1
v 0.1 0.6 0
v 0.1 0.6 -0.2
v 0.1 0.7 0.5
v 0.1 0.7 0.3
v 0.1 0.7 0.1
v 0.1 0.7 -0.2
v 0.2 0.1 0.2
v 0.2 0.1 0.1
v 0.2 0.2 0.2
v 0.2 0.2 0.1
v 0.2 0.2 -0.2
v 0.2 0.2 -0.3
v 0.2 0.2 -0.4
v 0.2 0.2 -0.6
v 0.2 0.3 0.3
v 0.2 0.3 0.2
v 0.2 0.3 -0.3
v 0.2 0.3 -0.4
v 0.2 0.3 -0.6
v 0.2 0.3 -0.7
v 0.2 0.4 0.5
v 0.2 0.4 0.4
v 0.2 0.4 0.3
v 0.2 0.4 0.1
v 0.2 0.4 -0.2
v 0.2 0.4 -0.3
v 0.2 0.4 -0.4
v 0.2 0.4 -0.6
v 0.2 0.4 -0.7
v 0.2 0.5 0.6
v 0.2 0.5 0.5
v 0.2 0.5 0.4
v 0.2 0.5 0
v 0.2 0.5 -0.2
v 0.2 0.6 0.6
v 0.2 0.6 0.4
v 0.2 0.6 0.3
v 0.2 0.6 0.1
v 0.2 0.6 0
v 0.2 0.6 -0.2
v 0.2 0.6 -0.3
v 0.2 0.7 0.3
v 0.2 0.7 0.1
v 0.2 0.7 -0.2
v 0.2 0.7 -0.3
v 0.2 0.7 -0.4
v 0.2 0.7 -0.6
v 0.2 0.8 -0.4
v 0.2 0.8 -0.6
v 0.3 -2.23517e-08 0.2
v 0.3 -2.23517e-08 0
v 0.3 -2.23517e-08 -0.2
v 0.3 -2.23517e-08 -0.3
v 0.3 0.1 0.2
v 0.3 0.1 0.1
v 0.3 0.1 0
v 0.3 0.1 -0.2
v 0.3 0.1 -0.3
v 0.3 0.2 0.1
v 0.3 0.2 0
v 0.3 0.2 -0.1
v 0.3 0.2 -0.2
v 0.3 0.2 -0.3
v 0.3 0.3 -0.1
v 0.3 0.3 -0.2
v 0.3 0.3 -0.4
v 0.3 0.3 -0.6
v 0.3 0.4 0.4
v 0.3 0.4 0.1
v 0.3 0.4 0
v 0.3 0.4 -0.2
v 0.3 0.4 -0.4
v 0.3 0.4 -0.6
v 0.3 0.4 -0.7
v 0.3 0.4 -0.8
v 0.3 0.5 0.4
v 0.3 0.5 0
v 0.3 0.5 -0.2
v 0.3 0.5 -0.3
v 0.3 0.5 -0.7
v 0.3 0.5 -0.8
v 0.3 0.6 0.4
v 0.3 0.6 0
v 0.3 0.6 -0.2
v 0.3 0.6 -0.3
v 0.3 0.6 -0.7
v 0.3 0.6 -0.8
v 0.3 0.7 -0.3
v 0.3 0.7 -0.7
v 0.4 -2.23517e-08 0
v 0.4 -2.23517e-08 -0.2
v 0.4 0.1 0
v 0.4 0.1 -0.2
v 0.4 0.2 0
v 0.4 0.2 -0.1
v 0.4 0.3 -0.1
v 0.4 0.3 -0.2
v 0.4 0.4 0
v 0.4 0.4 -0.2
v 0.4 0.4 -0.3
v 0.4 0.4 -0.7
v 0.4 0.5 -0.2
v 0.4 0.5 -0.3
v 0.4 0.5 -0.7
v 0.4 0.6 -0.3
v 0.4 0.6 -0.7
v 0 0.5 0.8
v 0 0.6 0.8
v 0.1 0.5 0.8
v 0.1 0.6 0.8
v -0.1 0.5 0.6
v -0.1 0.6 0.6
v 0 0.4 0.6
v 0 0.5 0.6
v 0 0.6 0.6
v 0.1 0.4 0.6
v 0.1 0.5 0.6
v 0.1 0.6 0.6
v 0.2 0.5 0.6
v 0.2 0.6 0.6
v -0.1 0.4 0.5
v -0.1 0.5 0.5
v 0 0.4 0.5
v 0 0.5 0.5
v 0 0.6 0.5
v 0 0.7 0.5
v 0.1 0.4 0.5
v 0.1 0.5 0.5
v 0.1 0.6 0.5
v 0.1 0.7 0.5
v 0.2 0.4 0.5
v 0.2 0.5 0.5
v -0.2 0.4 0.4
v -0.2 0.5 0.4
v -0.2 0.6 0.4
v -0.1 0.4 0.4
v -0.1 0.5 0.4
v -0.1 0.6 0.4
v 0 0.3 0.4
v 0 0.4 0.4
v 0.1 0.3 0.4
v 0.1 0.4 0.4
v 0.2 0.4 0.4
v 0.2 0.5 0.4
v 0.2 0.6 0.4
v 0.3 0.4 0.4
v 0.3 0.5 0.4
v 0.3 0.6 0.4
v -0.1 0.3 0.3
v -0.1 0.4 0.3
v -0.1 0.6 0.3
v -0.1 0.7 0.3
v 0 0.2 0.3
v 0 0.3 0.3
v 0 0.4 0.3
v 0 0.6 0.3
v 0 0.7 0.3
v 0.1 0.2 0.3
v 0.1 0.3 0.3
v 0.1 0.4 0.3
v 0.1 0.6 0.3
v 0.1 0.7 0.3
v 0.2 0.3 0.3
v 0.2 0.4 0.3
v 0.2 0.6 0.3
v 0.2 0.7 0.3
v -0.2 -2.23517e-08 0.2
v -0.2 0.1 0.2
v -0.1 0.1 0.2
v -0.1 0.2 0.2
v -0.1 0.3 0.2
v 0 0.2 0.2
v 0 0.3 0.2
v 0.1 0.2 0.2
v 0.1 0.3 0.2
v 0.2 0.1 0.2
v 0.2 0.2 0.2
v 0.2 0.3 0.2
v 0.3 -2.23517e-08 0.2
v 0.3 0.1 0.2
v -0.3 -2.23517e-08 0.1
v -0.3 0.1 0.1
v -0.2 -2.23517e-08 0.1
v -0.2 0.1 0.1
v -0.2 0.2 0.1
v -0.2 0.4 0.1
v -0.1 0.1 0.1
v -0.1 0.2 0.1
v -0.1 0.4 0.1
v 0.2 0.1 0.1
v 0.2 0.2 0.1
v 0.2 0.4 0.1
v 0.3 0.1 0.1
v 0.3 0.2 0.1
v 0.3 0.4 0.1
v -0.3 0.2 0
v -0.3 0.4 0
v -0.2 0.2 0
v -0.2 0.4 0
v 0.3 -2.23517e-08 0
v 0.3 0.1 0
v 0.3 0.2 0
v 0.3 0.4 0
v 0.4 -2.23517e-08 0
v 0.4 0.1 0
v 0.4 0.2 0
v 0.4 0.4 0
v 0 -2.23517e-08 -0.1
v 0 0.1 -0.1
v 0.1 -2.23517e-08 -0.1
v 0.1 0.1 -0.1
v -0.3 0.4 -0.2
v -0.3 0.5 -0.2
v -0.2 0.4 -0.2
v -0.2 0.5 -0.2
v -0.2 0.6 -0.2
v -0.1 0.5 -0.2
v -0.1 0.6 -0.2
v -0.1 0.7 -0.2
v 0 0.6 -0.2
v 0 0.7 -0.2
v 0.1 0.6 -0.2
v 0.1 0.7 -0.2
v 0.2 0.5 -0.2
v 0.2 0.6 -0.2
v 0.2 0.7 -0.2
v 0.3 0.4 -0.2
v 0.3 0.5 -0.2
v 0.3 0.6 -0.2
v 0.4 0.4 -0.2
v 0.4 0.5 -0.2
v -0.3 0.5 -0.3
v -0.3 0.6 -0.3
v -0.2 0.5 -0.3
v -0.2 0.6 -0.3
v -0.2 0.7 -0.3
v -0.1 0.6 -0.3
v -0.1 0.7 -0.3
v 0.2 0.6 -0.3
v 0.2 0.7 -0.3
v 0.3 0.5 -0.3
v 0.3 0.6 -0.3
v 0.3 0.7 -0.3
v 0.4 0.5 -0.3
v 0.4 0.6 -0.3
v -0.2 0.3 -0.4
v -0.2 0.4 -0.4
v -0.1 0.2 -0.4
v -0.1 0.3 -0.4
v -0.1 0.4 -0.4
v -0.1 0.7 -0.4
v -0.1 0.8 -0.4
v 0.2 0.2 -0.4
v 0.2 0.3 -0.4
v 0.2 0.4 -0.4
v 0.2 0.7 -0.4
v 0.2 0.8 -0.4
v 0.3 0.3 -0.4
v 0.3 0.4 -0.4
v -0.1 0.6 0.1
v -0.1 0.7 0.1
v 0 0.6 0.1
v 0 0.7 0.1
v 0.1 0.6 0.1
v 0.1 0.7 0.1
v 0.2 0.6 0.1
v 0.2 0.7 0.1
v -0.2 0.5 0
v -0.2 0.6 0
v -0.1 0.5 0
v -0.1 0.6 0
v 0 -2.23517e-08 0
v 0 0.1 0
v 0.1 -2.23517e-08 0
v 0.1 0.1 0
v 0.2 0.5 0
v 0.2 0.6 0
v 0.3 0.5 0
v 0.3 0.6 0
v -0.3 -2.23517e-08 -0.1
v -0.3 0.1 -0.1
v -0.3 0.2 -0.1
v -0.3 0.3 -0.1
v -0.2 -2.23517e-08 -0.1
v -0.2 0.1 -0.1
v -0.2 0.2 -0.1
v -0.2 0.3 -0.1
v 0.3 0.2 -0.1
v 0.3 0.3 -0.1
v 0.4 0.2 -0.1
v 0.4 0.3 -0.1
v -0.3 0.3 -0.2
v -0.3 0.4 -0.2
v -0.2 0.2 -0.2
v -0.2 0.3 -0.2
v -0.1 0.2 -0.2
v -0.1 0.4 -0.2
v 0.2 0.2 -0.2
v 0.2 0.4 -0.2
v 0.3 -2.23517e-08 -0.2
v 0.3 0.1 -0.2
v 0.3 0.2 -0.2
v 0.3 0.3 -0.2
v 0.4 -2.23517e-08 -0.2
v 0.4 0.1 -0.2
v 0.4 0.3 -0.2
v 0.4 0.4 -0.2
v -0.2 -2.23517e-08 -0.3
v -0.2 0.1 -0.3
v -0.2 0.2 -0.3
v -0.1 0.2 -0.3
v -0.1 0.3 -0.3
v 0.2 0.2 -0.3
v 0.2 0.3 -0.3
v 0.3 -2.23517e-08 -0.3
v 0.3 0.1 -0.3
v 0.3 0.2 -0.3
v -0.2 0.3 -0.6
v -0.2 0.4 -0.6
v -0.1 0.2 -0.6
v -0.1 0.3 -0.6
v -0.1 0.4 -0.6
v -0.1 0.7 -0.6
v -0.1 0.8 -0.6
v 0.2 0.2 -0.6
v 0.2 0.3 -0.6
v 0.2 0.4 -0.6
v 0.2 0.7 -0.6
v 0.2 0.8 -0.6
v 0.3 0.3 -0.6
v 0.3 0.4 -0.6
v -0.3 0.4 -0.7
v -0.3 0.5 -0.7
v -0.3 0.6 -0.7
v -0.2 0.4 -0.7
v -0.2 0.5 -0.7
v -0.2 0.6 -0.7
v -0.2 0.7 -0.7
v -0.1 0.3 -0.7
v -0.1 0.4 -0.7
v 0.2 0.3 -0.7
v 0.2 0.4 -0.7
v 0.3 0.4 -0.7
v 0.3 0.5 -0.7
v 0.3 0.6 -0.7
v 0.3 0.7 -0.7
v 0.4 0.4 -0.7
v 0.4 0.5 -0.7
v 0.4 0.6 -0.7
v -0.2 0.4 -0.8
v -0.2 0.5 -0.8
v -0.2 0.6 -0.8
v 0.3 0.4 -0.8
v 0.3 0.5 -0.8
v 0.3 0.6 -0.8
v -0.2 -2.23517e-08 0.2
v 0.3 -2.23517e-08 0.2
v -0.3 -2.23517e-08 0.1
v -0.2 -2.23517e-08 0.1
v 0 -2.23517e-08 0
v 0.1 -2.23517e-08 0
v 0.3 -2.23517e-08 0
v 0.4 -2.23517e-08 0
v -0.3 -2.23517e-08 -0.1
v -0.2 -2.23517e-08 -0.1
v 0 -2.23517e-08 -0.1
v 0.1 -2.23517e-08 -0.1
v 0.3 -2.23517e-08 -0.2
v 0.4 -2.23517e-08 -0.2
v -0.2 -2.23517e-08 -0.3
v 0.3 -2.23517e-08 -0.3
v 0 0.1 0
v 0.1 0.1 0
v 0 0.1 -0.1
v 0.1 0.1 -0.1
v 0 0.2 0.3
v 0.1 0.2 0.3
v 0 0.2 0.2
v 0.1 0.2 0.2
v -0.3 0.2 0
v -0.2 0.2 0
v 0.3 0.2 0
v 0.4 0.2 0
v -0.3 0.2 -0.1
v -0.2 0.2 -0.1
v 0.3 0.2 -0.1
v 0.4 0.2 -0.1
v -0.1 0.2 -0.4
v 0.2 0.2 -0.4
v -0.1 0.2 -0.6
v 0.2 0.2 -0.6
v 0 0.3 0.4
v 0.1 0.3 0.4
v -0.1 0.3 0.3
v 0 0.3 0.3
v 0.1 0.3 0.3
v 0.2 0.3 0.3
v -0.1 0.3 0.2
v 0 0.3 0.2
v 0.1 0.3 0.2
v 0.2 0.3 0.2
v -0.3 0.3 -0.1
v -0.2 0.3 -0.1
v 0.3 0.3 -0.1
v 0.4 0.3 -0.1
v -0.3 0.3 -0.2
v -0.2 0.3 -0.2
v 0.3 0.3 -0.2
v 0.4 0.3 -0.2
v -0.1 0.3 -0.3
v 0.2 0.3 -0.3
v -0.2 0.3 -0.4
v -0.1 0.3 -0.4
v 0.2 0.3 -0.4
v 0.3 0.3 -0.4
v -0.2 0.3 -0.6
v -0.1 0.3 -0.6
v 0.2 0.3 -0.6
v 0.3 0.3 -0.6
v -0.1 0.3 -0.7
v 0.2 0.3 -0.7
v 0 0.4 0.6
v 0.1 0.4 0.6
v -0.1 0.4 0.5
v 0 0.4 0.5
v 0.1 0.4 0.5
v 0.2 0.4 0.5
v -0.2 0.4 0.4
v -0.1 0.4 0.4
v 0 0.4 0.4
v 0.1 0.4 0.4
v 0.2 0.4 0.4
v 0.3 0.4 0.4
v -0.1 0.4 0.3
v 0 0.4 0.3
v 0.1 0.4 0.3
v 0.2 0.4 0.3
v -0.2 0.4 0.1
v -0.1 0.4 0.1
v 0.2 0.4 0.1
v 0.3 0.4 0.1
v -0.3 0.4 -0.2
v -0.1 0.4 -0.2
v 0.2 0.4 -0.2
v 0.4 0.4 -0.2
v -0.3 0.4 -0.3
v -0.1 0.4 -0.3
v 0.2 0.4 -0.3
v 0.4 0.4 -0.3
v -0.2 0.4 -0.4
v -0.1 0.4 -0.4
v 0.2 0.4 -0.4
v 0.3 0.4 -0.4
v -0.2 0.4 -0.6
v -0.1 0.4 -0.6
v 0.2 0.4 -0.6
v 0.3 0.4 -0.6
v -0.3 0.4 -0.7
v -0.2 0.4 -0.7
v -0.1 0.4 -0.7
v 0.2 0.4 -0.7
v 0.3 0.4 -0.7
v 0.4 0.4 -0.7
v -0.2 0.4 -0.8
v 0.3 0.4 -0.8
v 0 0.5 0.8
v 0.1 0.5 0.8
v -0.1 0.5 0.6
v 0 0.5 0.6
v 0.1 0.5 0.6
v 0.2 0.5 0.6
v -0.1 0.5 0.5
v 0 0.5 0.5
v 0.1 0.5 0.5
v 0.2 0.5 0.5
v -0.2 0.1 0.2
v -0.1 0.1 0.2
v 0.2 0.1 0.2
v 0.3 0.1 0.2
v -0.3 0.1 0.1
v -0.2 0.1 0.1
v -0.1 0.1 0.1
v 0.2 0.1 0.1
v 0.3 0.1 0.1
v 0.3 0.1 0
v 0.4 0.1 0
v -0.3 0.1 -0.1
v -0.2 0.1 -0.1
v 0.3 0.1 -0.2
v 0.4 0.1 -0.2
v -0.2 0.2 -0.2
v -0.1 0.2 -0.2
v 0.2 0.2 -0.2
v 0.3 0.2 -0.2
v -0.2 0.2 -0.3
v -0.1 0.2 -0.3
v 0.2 0.2 -0.3
v 0.3 0.2 -0.3
v -0.3 0.4 0
v -0.2 0.4 0
v 0.3 0.4 0
v 0.4 0.4 0
v -0.3 0.4 -0.2
v -0.2 0.4 -0.2
v 0.3 0.4 -0.2
v 0.4 0.4 -0.2
v -0.2 0.5 0
v -0.1 0.5 0
v 0.2 0.5 0
v 0.3 0.5 0
v -0.3 0.5 -0.2
v -0.2 0.5 -0.2
v -0.1 0.5 -0.2
v 0.2 0.5 -0.2
v 0.3 0.5 -0.2
v 0.4 0.5 -0.2
v -0.3 0.5 -0.3
v -0.2 0.5 -0.3
v 0.3 0.5 -0.3
v 0.4 0.5 -0.3
v 0 0.6 0.8
v 0.1 0.6 0.8
v -0.1 0.6 0.6
v 0 0.6 0.6
v 0.1 0.6 0.6
v 0.2 0.6 0.6
v 0 0.6 0.5
v 0.1 0.6 0.5
v -0.2 0.6 0.4
v -0.1 0.6 0.4
v 0 0.6 0.4
v 0.1 0.6 0.4
v 0.2 0.6 0.4
v 0.3 0.6 0.4
v -0.1 0.6 0.3
v 0 0.6 0.3
v 0.1 0.6 0.3
v 0.2 0.6 0.3
v -0.1 0.6 0.1
v 0 0.6 0.1
v 0.1 0.6 0.1
v 0.2 0.6 0.1
v -0.2 0.6 0
v -0.1 0.6 0
v 0 0.6 0
v 0.1 0.6 0
v 0.2 0.6 0
v 0.3 0.6 0
v -0.2 0.6 -0.2
v -0.1 0.6 -0.2
v 0 0.6 -0.2
v 0.1 0.6 -0.2
v 0.2 0.6 -0.2
v 0.3 0.6 -0.2
v -0.3 0.6 -0.3
v -0.2 0.6 -0.3
v -0.1 0.6 -0.3
v 0.2 0.6 -0.3
v 0.3 0.6 -0.3
v 0.4 0.6 -0.3
v -0.3 0.6 -0.7
v -0.2 0.6 -0.7
v 0.3 0.6 -0.7
v 0.4 0.6 -0.7
v -0.2 0.6 -0.8
v 0.3 0.6 -0.8
v 0 0.7 0.5
v 0.1 0.7 0.5
v -0.1 0.7 0.3
v 0 0.7 0.3
v 0.1 0.7 0.3
v 0.2 0.7 0.3
v -0.1 0.7 0.1
v 0 0.7 0.1
v 0.1 0.7 0.1
v 0.2 0.7 0.1
v -0.1 0.7 -0.2
v 0 0.7 -0.2
v 0.1 0.7 -0.2
v 0.2 0.7 -0.2
v -0.2 0.7 -0.3
v -0.1 0.7 -0.3
v 0.2 0.7 -0.3
v 0.3 0.7 -0.3
v -0.1 0.7 -0.4
v 0.2 0.7 -0.4
v -0.1 0.7 -0.6
v 0.2 0.7 -0.6
v -0.2 0.7 -0.7
v 0.3 0.7 -0.7
v -0.1 0.8 -0.4
v 0.2 0.8 -0.4
v -0.1 0.8 -0.6
v 0.2 0.8 -0.6

# faces
f 3/2/1 2/2/1 1/2/1
f 4/2/1 2/2/1 3/2/1
f 7/2/1 6/2/1 5/2/1
f 9/2/1 7/2/1 5/2/1
f 9/2/1 8/2/1 7/2/1
f 10/2/1 8/2/1 9/2/1
f 13/1/1 11/1/1 10/1/1
f 14/2/1 12/2/1 11/2/1
f 14/1/1 11/1/1 13/1/1
f 15/2/1 12/2/1 14/2/1
f 16/3/1 15/3/1 14/3/1
f 17/3/1 15/3/1 16/3/1
f 22/2/1 19/2/1 18/2/1
f 23/2/1 19/2/1 22/2/1
f 24/2/1 21/2/1 20/2/1
f 25/2/1 21/2/1 24/2/1
f 26/3/1 24/3/1 23/3/1
f 26/3/1 25/3/1 24/3/1
f 27/3/1 25/3/1 26/3/1
f 28/3/1 25/3/1 27/3/1
f 29/3/1 25/3/1 28/3/1
f 30/3/1 25/3/1 29/3/1
f 31/2/1 29/2/1 28/2/1
f 32/2/1 29/2/1 31/2/1
f 36/2/1 27/2/1 26/2/1
f 37/2/1 27/2/1 36/2/1
f 39/2/1 34/2/1 33/2/1
f 40/2/1 34/2/1 39/2/1
f 43/2/1 38/2/1 37/2/1
f 43/2/1 36/2/1 35/2/1
f 43/2/1 37/2/1 36/2/1
f 44/2/1 38/2/1 43/2/1
f 45/2/1 38/2/1 44/2/1
f 47/2/1 42/2/1 41/2/1
f 48/2/1 42/2/1 47/2/1
f 49/3/1 44/3/1 43/3/1
f 50/3/1 44/3/1 49/3/1
f 51/3/1 46/3/1 45/3/1
f 52/3/1 46/3/1 51/3/1
f 53/3/1 48/3/1 47/3/1
f 54/3/1 48/3/1 53/3/1
f 55/2/1 53/2/1 52/2/1
f 56/2/1 53/2/1 55/2/1
f 59/3/1 58/3/1 57/3/1
f 60/3/1 58/3/1 59/3/1
f 66/2/1 60/2/1 59/2/1
f 67/2/1 62/2/1 61/2/1
f 68/2/1 64/2/1 63/2/1
f 69/2/1 64/2/1 68/2/1
f 73/2/1 66/2/1 65/2/1
f 74/2/1 60/2/1 66/2/1
f 74/2/1 66/2/1 73/2/1
f 75/2/1 67/2/1 61/2/1
f 76/1/1 68/1/1 67/1/1
f 76/2/1 67/2/1 75/2/1
f 77/1/1 68/1/1 76/1/1
f 78/2/1 70/2/1 69/2/1
f 79/2/1 70/2/1 78/2/1
f 81/5/1 72/5/1 71/5/1
f 82/5/1 72/5/1 81/5/1
f 85/5/1 81/5/1 80/5/1
f 85/5/1 82/5/1 81/5/1
f 86/5/1 82/5/1 85/5/1
f 89/3/1 84/3/1 83/3/1
f 90/3/1 84/3/1 89/3/1
f 92/2/1 88/2/1 87/2/1
f 93/2/1 88/2/1 92/2/1
f 94/1/1 91/1/1 90/1/1
f 95/1/1 91/1/1 94/1/1
f 98/2/1 97/2/1 96/2/1
f 99/2/1 97/2/1 98/2/1
f 103/2/1 101/2/1 100/2/1
f 104/2/1 101/2/1 103/2/1
f 107/2/1 103/2/1 102/2/1
f 108/2/1 103/2/1 107/2/1
f 110/5/1 106/5/1 105/5/1
f 111/5/1 106/5/1 110/5/1
f 112/5/1 110/5/1 109/5/1
f 113/5/1 110/5/1 112/5/1
f 120/5/1 116/5/1 115/5/1
f 120/5/1 115/5/1 114/5/1
f 121/5/1 116/5/1 120/5/1
f 122/2/1 119/2/1 118/2/1
f 122/2/1 118/2/1 117/2/1
f 123/2/1 119/2/1 122/2/1
f 126/2/1 125/2/1 124/2/1
f 127/2/1 125/2/1 126/2/1
f 128/2/2 129/2/2 130/2/2
f 130/2/2 129/2/2 131/2/2
f 132/2/2 133/2/2 135/2/2
f 135/2/2 133/2/2 136/2/2
f 134/2/2 135/2/2 139/2/2
f 139/2/2 135/2/2 140/2/2
f 137/5/2 138/5/2 142/5/2
f 142/5/2 138/5/2 143/5/2
f 141/5/2 142/5/2 144/5/2
f 144/5/2 142/5/2 145/5/2
f 147/5/2 148/5/2 152/5/2
f 146/5/2 147/5/2 152/5/2
f 152/5/2 148/5/2 153/5/2
f 150/2/2 151/2/2 154/2/2
f 149/2/2 150/2/2 154/2/2
f 154/2/2 151/2/2 155/2/2
f 156/3/2 157/3/2 158/3/2
f 158/3/2 157/3/2 159/3/2
f 158/2/2 159/2/2 165/2/2
f 160/2/2 161/2/2 166/2/2
f 162/2/2 163/2/2 167/2/2
f 167/2/2 163/2/2 168/2/2
f 164/2/2 165/2/2 172/2/2
f 165/2/2 159/2/2 173/2/2
f 172/2/2 165/2/2 173/2/2
f 160/2/2 166/2/2 174/2/2
f 166/1/2 167/1/2 175/1/2
f 174/2/2 166/2/2 175/2/2
f 175/1/2 167/1/2 176/1/2
f 168/2/2 169/2/2 177/2/2
f 177/2/2 169/2/2 178/2/2
f 170/5/2 171/5/2 180/5/2
f 180/5/2 171/5/2 181/5/2
f 179/5/2 180/5/2 184/5/2
f 180/5/2 181/5/2 184/5/2
f 184/5/2 181/5/2 185/5/2
f 182/3/2 183/3/2 188/3/2
f 188/3/2 183/3/2 189/3/2
f 186/2/2 187/2/2 191/2/2
f 191/2/2 187/2/2 192/2/2
f 189/1/2 190/1/2 193/1/2
f 193/1/2 190/1/2 194/1/2
f 195/2/2 196/2/2 197/2/2
f 197/2/2 196/2/2 198/2/2
f 199/2/2 200/2/2 203/2/2
f 203/2/2 200/2/2 204/2/2
f 204/2/2 200/2/2 205/2/2
f 201/2/2 202/2/2 206/2/2
f 206/2/2 202/2/2 207/2/2
f 204/3/2 205/3/2 208/3/2
f 206/3/2 207/3/2 208/3/2
f 205/3/2 206/3/2 208/3/2
f 208/3/2 207/3/2 209/3/2
f 209/3/2 207/3/2 210/3/2
f 210/3/2 207/3/2 211/3/2
f 211/3/2 207/3/2 212/3/2
f 210/2/2 211/2/2 213/2/2
f 213/2/2 211/2/2 214/2/2
f 208/2/2 209/2/2 218/2/2
f 218/2/2 209/2/2 219/2/2
f 215/2/2 216/2/2 221/2/2
f 221/2/2 216/2/2 222/2/2
f 219/2/2 220/2/2 225/2/2
f 217/2/2 218/2/2 225/2/2
f 218/2/2 219/2/2 225/2/2
f 225/2/2 220/2/2 226/2/2
f 226/2/2 220/2/2 227/2/2
f 223/2/2 224/2/2 229/2/2
f 229/2/2 224/2/2 230/2/2
f 225/3/2 226/3/2 231/3/2
f 231/3/2 226/3/2 232/3/2
f 227/3/2 228/3/2 233/3/2
f 233/3/2 228/3/2 234/3/2
f 229/3/2 230/3/2 235/3/2
f 235/3/2 230/3/2 236/3/2
f 234/2/2 235/2/2 237/2/2
f 237/2/2 235/2/2 238/2/2
f 239/2/2 240/2/2 241/2/2
f 241/2/2 240/2/2 242/2/2
f 243/2/2 244/2/2 245/2/2
f 243/2/2 245/2/2 247/2/2
f 245/2/2 246/2/2 247/2/2
f 247/2/2 246/2/2 248/2/2
f 248/1/2 249/1/2 251/1/2
f 249/2/2 250/2/2 252/2/2
f 251/1/2 249/1/2 252/1/2
f 252/2/2 250/2/2 253/2/2
f 252/3/2 253/3/2 254/3/2
f 254/3/2 253/3/2 255/3/2
f 258/5/3 257/5/3 256/5/3
f 259/5/3 257/5/3 258/5/3
f 263/5/3 261/5/3 260/5/3
f 264/5/3 261/5/3 263/5/3
f 265/5/3 263/5/3 262/5/3
f 266/5/3 263/5/3 265/5/3
f 268/5/3 267/5/3 266/5/3
f 269/5/3 267/5/3 268/5/3
f 272/5/3 271/5/3 270/5/3
f 273/5/3 271/5/3 272/5/3
f 278/5/3 275/5/3 274/5/3
f 279/5/3 275/5/3 278/5/3
f 280/5/3 277/5/3 276/5/3
f 281/5/3 277/5/3 280/5/3
f 285/2/3 283/2/3 282/2/3
f 286/3/3 284/3/3 283/3/3
f 286/2/3 283/2/3 285/2/3
f 287/3/3 284/3/3 286/3/3
f 290/2/3 289/2/3 288/2/3
f 291/2/3 289/2/3 290/2/3
f 295/2/3 293/2/3 292/2/3
f 296/3/3 294/3/3 293/3/3
f 296/2/3 293/2/3 295/2/3
f 297/3/3 294/3/3 296/3/3
f 303/2/3 299/2/3 298/2/3
f 304/2/3 299/2/3 303/2/3
f 305/2/3 301/2/3 300/2/3
f 306/2/3 301/2/3 305/2/3
f 307/2/3 303/2/3 302/2/3
f 308/2/3 303/2/3 307/2/3
f 312/2/3 309/2/3 308/2/3
f 313/2/3 309/2/3 312/2/3
f 314/2/3 311/2/3 310/2/3
f 315/2/3 311/2/3 314/2/3
f 318/2/3 317/2/3 316/2/3
f 321/3/3 319/3/3 318/3/3
f 321/2/3 320/2/3 319/2/3
f 322/2/3 320/2/3 321/2/3
f 323/3/3 321/3/3 318/3/3
f 325/2/3 318/2/3 316/2/3
f 325/3/3 323/3/3 318/3/3
f 326/2/3 324/2/3 323/2/3
f 326/3/3 323/3/3 325/3/3
f 327/2/3 324/2/3 326/2/3
f 328/2/3 325/2/3 316/2/3
f 329/2/3 325/2/3 328/2/3
f 332/2/3 331/2/3 330/2/3
f 333/2/3 331/2/3 332/2/3
f 336/3/3 334/3/3 333/3/3
f 337/2/3 335/2/3 334/2/3
f 337/3/3 334/3/3 336/3/3
f 338/2/3 335/2/3 337/2/3
f 342/3/3 340/3/3 339/3/3
f 343/2/3 341/2/3 340/2/3
f 343/3/3 340/3/3 342/3/3
f 344/2/3 341/2/3 343/2/3
f 347/2/3 346/2/3 345/2/3
f 348/2/3 346/2/3 347/2/3
f 353/2/3 350/2/3 349/2/3
f 354/2/3 350/2/3 353/2/3
f 355/2/3 352/2/3 351/2/3
f 356/2/3 352/2/3 355/2/3
f 359/2/3 358/2/3 357/2/3
f 360/2/3 358/2/3 359/2/3
f 363/1/3 362/1/3 361/1/3
f 364/1/3 362/1/3 363/1/3
f 366/3/3 365/3/3 364/3/3
f 367/3/3 365/3/3 366/3/3
f 369/1/3 368/1/3 367/1/3
f 370/1/3 368/1/3 369/1/3
f 374/1/3 372/1/3 371/1/3
f 375/1/3 372/1/3 374/1/3
f 377/3/3 374/3/3 373/3/3
f 378/3/3 374/3/3 377/3/3
f 379/1/3 377/1/3 376/1/3
f 380/1/3 377/1/3 379/1/3
f 383/3/3 382/3/3 381/3/3
f 384/3/3 382/3/3 383/3/3
f 386/2/3 385/2/3 384/2/3
f 387/2/3 385/2/3 386/2/3
f 391/2/3 389/2/3 388/2/3
f 392/2/3 389/2/3 391/2/3
f 393/3/3 391/3/3 390/3/3
f 394/3/3 391/3/3 393/3/3
f 398/2/3 396/2/3 395/2/3
f 399/2/3 396/2/3 398/2/3
f 402/2/3 398/2/3 397/2/3
f 403/2/3 398/2/3 402/2/3
f 405/2/3 401/2/3 400/2/3
f 406/2/3 401/2/3 405/2/3
f 407/2/3 404/2/3 403/2/3
f 408/2/3 404/2/3 407/2/3
f 409/2/4 410/2/4 411/2/4
f 411/2/4 410/2/4 412/2/4
f 413/2/4 414/2/4 415/2/4
f 415/2/4 414/2/4 416/2/4
f 417/3/4 418/3/4 419/3/4
f 419/3/4 418/3/4 420/3/4
f 421/2/4 422/2/4 423/2/4
f 423/2/4 422/2/4 424/2/4
f 425/3/4 426/3/4 427/3/4
f 427/3/4 426/3/4 428/3/4
f 429/2/4 430/2/4 433/2/4
f 433/2/4 430/2/4 434/2/4
f 431/2/4 432/2/4 435/2/4
f 435/2/4 432/2/4 436/2/4
f 437/2/4 438/2/4 439/2/4
f 439/2/4 438/2/4 440/2/4
f 441/2/4 442/2/4 444/2/4
f 443/2/4 444/2/4 445/2/4
f 444/2/4 442/2/4 446/2/4
f 445/2/4 444/2/4 446/2/4
f 447/2/4 448/2/4 451/2/4
f 451/2/4 448/2/4 452/2/4
f 449/2/4 450/2/4 453/2/4
f 453/2/4 450/2/4 454/2/4
f 452/2/4 448/2/4 455/2/4
f 455/2/4 448/2/4 456/2/4
f 458/3/4 459/3/4 460/3/4
f 458/3/4 460/3/4 462/3/4
f 460/2/4 461/2/4 462/2/4
f 462/2/4 461/2/4 463/2/4
f 457/2/4 458/2/4 464/2/4
f 458/3/4 462/3/4 465/3/4
f 464/2/4 458/2/4 465/2/4
f 465/3/4 462/3/4 466/3/4
f 467/2/4 468/2/4 470/2/4
f 470/2/4 468/2/4 471/2/4
f 469/2/4 470/2/4 474/2/4
f 474/2/4 470/2/4 475/2/4
f 472/2/4 473/2/4 477/2/4
f 477/2/4 473/2/4 478/2/4
f 475/2/4 476/2/4 479/2/4
f 479/2/4 476/2/4 480/2/4
f 481/2/4 482/2/4 484/2/4
f 482/3/4 483/3/4 485/3/4
f 484/2/4 482/2/4 485/2/4
f 485/3/4 483/3/4 486/3/4
f 488/2/4 489/2/4 490/2/4
f 490/2/4 489/2/4 491/2/4
f 486/2/4 487/2/4 494/2/4
f 494/2/4 487/2/4 495/2/4
f 492/2/4 493/2/4 496/2/4
f 493/3/4 494/3/4 497/3/4
f 496/2/4 493/2/4 497/2/4
f 497/3/4 494/3/4 498/3/4
f 499/2/4 500/2/4 502/2/4
f 500/3/4 501/3/4 503/3/4
f 502/2/4 500/2/4 503/2/4
f 503/3/4 501/3/4 504/3/4
f 508/2/5 506/2/5 505/2/5
f 509/2/5 506/2/5 508/2/5
f 509/2/5 508/2/5 507/2/5
f 510/2/5 506/2/5 509/2/5
f 511/2/5 506/2/5 510/2/5
f 513/2/5 509/2/5 507/2/5
f 514/2/5 509/2/5 513/2/5
f 515/2/5 509/2/5 514/2/5
f 516/2/5 512/2/5 511/2/5
f 516/2/5 511/2/5 510/2/5
f 517/2/5 515/2/5 514/2/5
f 517/2/5 516/2/5 515/2/5
f 517/2/5 512/2/5 516/2/5
f 518/2/5 512/2/5 517/2/5
f 519/2/5 517/2/5 514/2/5
f 520/2/5 517/2/5 519/2/5
f 523/4/5 522/4/5 521/4/5
f 524/4/5 522/4/5 523/4/5
f 527/2/5 526/2/5 525/2/5
f 528/2/5 526/2/5 527/2/5
f 533/2/5 530/2/5 529/2/5
f 534/2/5 530/2/5 533/2/5
f 535/2/5 532/2/5 531/2/5
f 536/2/5 532/2/5 535/2/5
f 539/2/5 538/2/5 537/2/5
f 540/2/5 538/2/5 539/2/5
f 544/2/5 542/2/5 541/2/5
f 545/2/5 542/2/5 544/2/5
f 547/2/5 544/2/5 543/2/5
f 548/2/5 544/2/5 547/2/5
f 549/2/5 546/2/5 545/2/5
f 550/2/5 546/2/5 549/2/5
f 555/2/5 552/2/5 551/2/5
f 556/2/5 552/2/5 555/2/5
f 557/2/5 554/2/5 553/2/5
f 558/2/5 554/2/5 557/2/5
f 562/1/5 560/1/5 559/1/5
f 563/1/5 560/1/5 562/1/5
f 565/2/5 562/2/5 561/2/5
f 566/2/5 562/2/5 565/2/5
f 567/2/5 564/2/5 563/2/5
f 568/2/5 564/2/5 567/2/5
f 569/2/5 567/2/5 566/2/5
f 570/2/5 567/2/5 569/2/5
f 574/5/5 572/5/5 571/5/5
f 575/5/5 572/5/5 574/5/5
f 578/5/5 574/5/5 573/5/5
f 578/5/5 576/5/5 575/5/5
f 578/5/5 575/5/5 574/5/5
f 579/5/5 576/5/5 578/5/5
f 580/5/5 576/5/5 579/5/5
f 581/5/5 576/5/5 580/5/5
f 583/2/5 578/2/5 577/2/5
f 583/2/5 579/2/5 578/2/5
f 584/2/5 579/2/5 583/2/5
f 585/2/5 582/2/5 581/2/5
f 585/2/5 581/2/5 580/2/5
f 586/2/5 582/2/5 585/2/5
f 587/2/5 583/2/5 577/2/5
f 588/2/5 583/2/5 587/2/5
f 589/2/5 582/2/5 586/2/5
f 590/2/5 582/2/5 589/2/5
f 595/1/5 592/1/5 591/1/5
f 596/1/5 592/1/5 595/1/5
f 597/1/5 594/1/5 593/1/5
f 598/1/5 594/1/5 597/1/5
f 599/2/5 596/2/5 595/2/5
f 600/2/5 596/2/5 599/2/5
f 601/2/5 598/2/5 597/2/5
f 602/2/5 598/2/5 601/2/5
f 603/2/5 599/2/5 595/2/5
f 606/2/5 598/2/5 602/2/5
f 607/2/5 604/2/5 603/2/5
f 607/2/5 603/2/5 595/2/5
f 608/2/5 604/2/5 607/2/5
f 609/2/5 604/2/5 608/2/5
f 610/2/5 606/2/5 605/2/5
f 611/2/5 598/2/5 606/2/5
f 611/2/5 606/2/5 610/2/5
f 612/2/5 598/2/5 611/2/5
f 613/2/5 609/2/5 608/2/5
f 613/2/5 610/2/5 609/2/5
f 613/2/5 611/2/5 610/2/5
f 614/2/5 611/2/5 613/2/5
f 618/5/5 616/5/5 615/5/5
f 619/5/5 616/5/5 618/5/5
f 621/5/5 618/5/5 617/5/5
f 622/5/5 618/5/5 621/5/5
f 623/5/5 620/5/5 619/5/5
f 624/5/5 620/5/5 623/5/5
f 625/2/6 626/2/6 630/2/6
f 630/2/6 626/2/6 631/2/6
f 627/2/6 628/2/6 632/2/6
f 632/2/6 628/2/6 633/2/6
f 629/2/6 630/2/6 636/2/6
f 636/2/6 630/2/6 637/2/6
f 634/2/6 635/2/6 638/2/6
f 638/2/6 635/2/6 639/2/6
f 640/3/6 641/3/6 644/3/6
f 644/3/6 641/3/6 645/3/6
f 642/3/6 643/3/6 646/3/6
f 646/3/6 643/3/6 647/3/6
f 648/2/6 649/2/6 652/2/6
f 652/2/6 649/2/6 653/2/6
f 650/2/6 651/2/6 654/2/6
f 654/2/6 651/2/6 655/2/6
f 656/2/6 657/2/6 661/2/6
f 661/2/6 657/2/6 662/2/6
f 658/2/6 659/2/6 663/2/6
f 663/2/6 659/2/6 664/2/6
f 660/1/6 661/1/6 666/1/6
f 666/1/6 661/1/6 667/1/6
f 664/1/6 665/1/6 668/1/6
f 668/1/6 665/1/6 669/1/6
f 670/5/6 671/5/6 673/5/6
f 673/5/6 671/5/6 674/5/6
f 672/5/6 673/5/6 676/5/6
f 674/5/6 675/5/6 676/5/6
f 673/5/6 674/5/6 676/5/6
f 676/5/6 675/5/6 677/5/6
f 672/5/6 676/5/6 679/5/6
f 679/5/6 676/5/6 680/5/6
f 677/5/6 675/5/6 681/5/6
f 681/5/6 675/5/6 682/5/6
f 679/2/6 680/2/6 684/2/6
f 678/3/6 679/3/6 684/3/6
f 684/2/6 680/2/6 685/2/6
f 681/2/6 682/2/6 686/2/6
f 682/3/6 683/3/6 687/3/6
f 686/2/6 682/2/6 687/2/6
f 678/3/6 684/3/6 688/3/6
f 687/3/6 683/3/6 691/3/6
f 678/3/6 688/3/6 692/3/6
f 688/2/6 689/2/6 693/2/6
f 692/3/6 688/3/6 693/3/6
f 693/2/6 689/2/6 694/2/6
f 690/2/6 691/2/6 695/2/6
f 691/3/6 683/3/6 696/3/6
f 695/2/6 691/2/6 696/2/6
f 696/3/6 683/3/6 697/3/6
f 693/3/6 694/3/6 699/3/6
f 699/3/6 694/3/6 700/3/6
f 695/3/6 696/3/6 701/3/6
f 701/3/6 696/3/6 702/3/6
f 698/3/6 699/3/6 705/3/6
f 705/3/6 699/3/6 706/3/6
f 702/3/6 703/3/6 707/3/6
f 707/3/6 703/3/6 708/3/6
f 704/3/6 705/3/6 710/3/6
f 710/3/6 705/3/6 711/3/6
f 708/3/6 709/3/6 712/3/6
f 712/3/6 709/3/6 713/3/6
f 711/3/6 712/3/6 714/3/6
f 714/3/6 712/3/6 715/3/6
f 716/5/6 717/5/6 719/5/6
f 719/5/6 717/5/6 720/5/6
f 718/2/6 719/2/6 722/2/6
f 720/2/6 721/2/6 722/2/6
f 719/2/6 720/2/6 722/2/6
f 722/2/6 721/2/6 723/2/6
f 723/2/6 721/2/6 724/2/6
f 724/2/6 721/2/6 725/2/6
f 723/2/6 724/2/6 727/2/6
f 727/2/6 724/2/6 728/2/6
f 726/1/6 727/1/6 731/1/6
f 728/1/6 729/1/6 731/1/6
f 727/1/6 728/1/6 731/1/6
f 731/1/6 729/1/6 732/1/6
f 731/2/6 732/2/6 734/2/6
f 732/2/6 733/2/6 734/2/6
f 730/2/6 731/2/6 734/2/6
f 734/2/6 733/2/6 735/2/6
f 730/2/6 734/2/6 736/2/6
f 735/2/6 733/2/6 737/2/6
f 730/2/6 736/2/6 738/2/6
f 736/2/6 737/2/6 738/2/6
f 737/2/6 733/2/6 739/2/6
f 738/2/6 737/2/6 739/2/6
f 740/2/6 741/2/6 742/2/6
f 742/2/6 741/2/6 743/2/6
