# MagicaVoxel @ Ephtracy

# group
o 

# material
mtllib box-2.mtl
usemtl palette

# normals
vn -1 0 0
vn 1 0 0
vn 0 0 1
vn 0 0 -1
vn 0 -1 0
vn 0 1 0

# texcoords
vt 0.970703 0.5
vt 0.974609 0.5
vt 0.978516 0.5

# verts
v 1.3 0.7 1.2
v 1.3 0.7 1
v 1.3 0.7 -1.1
v 1.3 0.7 -1.3
v 1.3 0.8 1.2
v 1.3 0.8 1
v 1.3 0.8 -1.1
v 1.3 0.8 -1.3
v 1.3 3.3 1.2
v 1.3 3.3 -1.3
v 1.5 0.8 1
v 1.5 0.8 -1.1
v 1.5 0.9 1
v 1.5 0.9 -1.1
v 1.5 1.3 1
v 1.5 1.3 -0.8
v 1.5 1.4 1
v 1.5 1.4 -0.7
v 1.5 1.4 -0.8
v 1.5 1.5 -0.6
v 1.5 1.5 -0.7
v 1.5 1.6 -0.5
v 1.5 1.6 -0.6
v 1.5 1.6 -1
v 1.5 1.6 -1.1
v 1.5 1.7 1
v 1.5 1.7 -0.4
v 1.5 1.7 -0.5
v 1.5 1.7 -0.9
v 1.5 1.7 -1
v 1.5 1.7 -1.1
v 1.5 1.8 1
v 1.5 1.8 -0.3
v 1.5 1.8 -0.4
v 1.5 1.8 -0.8
v 1.5 1.8 -0.9
v 1.5 1.8 -1.1
v 1.5 1.9 -0.2
v 1.5 1.9 -0.3
v 1.5 1.9 -0.7
v 1.5 1.9 -0.8
v 1.5 2 -0.0999999
v 1.5 2 -0.2
v 1.5 2 -0.6
v 1.5 2 -0.7
v 1.5 2.1 1
v 1.5 2.1 5.21541e-008
v 1.5 2.1 -0.0999999
v 1.5 2.1 -0.5
v 1.5 2.1 -0.6
v 1.5 2.1 -1.1
v 1.5 2.2 1
v 1.5 2.2 0.1
v 1.5 2.2 5.21541e-008
v 1.5 2.2 -0.4
v 1.5 2.2 -0.5
v 1.5 2.2 -1.1
v 1.5 2.3 0.2
v 1.5 2.3 0.1
v 1.5 2.3 -0.3
v 1.5 2.3 -0.4
v 1.5 2.4 0.3
v 1.5 2.4 0.2
v 1.5 2.4 -0.2
v 1.5 2.4 -0.3
v 1.5 2.5 1
v 1.5 2.5 0.4
v 1.5 2.5 0.3
v 1.5 2.5 -0.0999999
v 1.5 2.5 -0.2
v 1.5 2.5 -1.1
v 1.5 2.6 1
v 1.5 2.6 0.5
v 1.5 2.6 0.4
v 1.5 2.6 5.21541e-008
v 1.5 2.6 -0.0999999
v 1.5 2.6 -1.1
v 1.5 2.7 0.6
v 1.5 2.7 0.5
v 1.5 2.7 0.1
v 1.5 2.7 5.21541e-008
v 1.5 2.8 0.7
v 1.5 2.8 0.6
v 1.5 2.8 0.2
v 1.5 2.8 0.1
v 1.5 2.9 1
v 1.5 2.9 0.8
v 1.5 2.9 0.7
v 1.5 2.9 0.3
v 1.5 2.9 0.2
v 1.5 2.9 -1.1
v 1.5 3 1
v 1.5 3 0.9
v 1.5 3 0.8
v 1.5 3 0.4
v 1.5 3 0.3
v 1.5 3 -1.1
v 1.5 3.1 1
v 1.5 3.1 0.9
v 1.5 3.1 0.5
v 1.5 3.1 0.4
v 1.5 3.2 0.6
v 1.5 3.2 0.5
v 1.5 3.3 0.6
v 1.5 3.3 -1.1
v 1.6 0.9 1
v 1.6 0.9 -1.1
v 1.6 1.3 1.2
v 1.6 1.3 1
v 1.6 1.3 -0.8
v 1.6 1.3 -1.1
v 1.6 1.3 -1.3
v 1.6 1.4 -0.7
v 1.6 1.4 -0.8
v 1.6 1.5 -0.6
v 1.6 1.5 -0.7
v 1.6 1.6 -0.5
v 1.6 1.6 -0.6
v 1.6 1.6 -1
v 1.6 1.6 -1.1
v 1.6 1.7 -0.4
v 1.6 1.7 -0.5
v 1.6 1.7 -0.9
v 1.6 1.7 -1
v 1.6 1.8 -0.3
v 1.6 1.8 -0.4
v 1.6 1.8 -0.8
v 1.6 1.8 -0.9
v 1.6 1.9 -0.2
v 1.6 1.9 -0.3
v 1.6 1.9 -0.7
v 1.6 1.9 -0.8
v 1.6 2 -0.0999999
v 1.6 2 -0.2
v 1.6 2 -0.6
v 1.6 2 -0.7
v 1.6 2.1 5.21541e-008
v 1.6 2.1 -0.0999999
v 1.6 2.1 -0.5
v 1.6 2.1 -0.6
v 1.6 2.2 0.1
v 1.6 2.2 5.21541e-008
v 1.6 2.2 -0.4
v 1.6 2.2 -0.5
v 1.6 2.3 0.2
v 1.6 2.3 0.1
v 1.6 2.3 -0.3
v 1.6 2.3 -0.4
v 1.6 2.4 0.3
v 1.6 2.4 0.2
v 1.6 2.4 -0.2
v 1.6 2.4 -0.3
v 1.6 2.5 0.4
v 1.6 2.5 0.3
v 1.6 2.5 -0.0999999
v 1.6 2.5 -0.2
v 1.6 2.6 0.5
v 1.6 2.6 0.4
v 1.6 2.6 5.21541e-008
v 1.6 2.6 -0.0999999
v 1.6 2.7 0.6
v 1.6 2.7 0.5
v 1.6 2.7 0.1
v 1.6 2.7 5.21541e-008
v 1.6 2.8 0.7
v 1.6 2.8 0.6
v 1.6 2.8 0.2
v 1.6 2.8 0.1
v 1.6 2.9 0.8
v 1.6 2.9 0.7
v 1.6 2.9 0.3
v 1.6 2.9 0.2
v 1.6 3 0.9
v 1.6 3 0.8
v 1.6 3 0.4
v 1.6 3 0.3
v 1.6 3.1 1
v 1.6 3.1 0.9
v 1.6 3.1 0.5
v 1.6 3.1 0.4
v 1.6 3.2 0.6
v 1.6 3.2 0.5
v 1.6 3.3 1.2
v 1.6 3.3 0.6
v 1.6 3.3 -1.1
v 1.6 3.3 -1.3
v 1.7 0.7 1.2
v 1.7 0.7 1
v 1.7 0.7 -1.1
v 1.7 0.7 -1.3
v 1.7 1.3 1.2
v 1.7 1.3 1
v 1.7 1.3 -1.1
v 1.7 1.3 -1.3
v 1.3 0.7 1.2
v 1.3 0.8 1.2
v 1.3 3.3 1.2
v 1.6 0.8 1.2
v 1.6 1.3 1.2
v 1.6 3.3 1.2
v 1.7 0.7 1.2
v 1.7 1.3 1.2
v 1.5 3 0.9
v 1.5 3.1 0.9
v 1.6 3 0.9
v 1.6 3.1 0.9
v 1.5 2.9 0.8
v 1.5 3 0.8
v 1.6 2.9 0.8
v 1.6 3 0.8
v 1.5 2.8 0.7
v 1.5 2.9 0.7
v 1.6 2.8 0.7
v 1.6 2.9 0.7
v 1.5 2.7 0.6
v 1.5 2.8 0.6
v 1.6 2.7 0.6
v 1.6 2.8 0.6
v 1.5 2.6 0.5
v 1.5 2.7 0.5
v 1.6 2.6 0.5
v 1.6 2.7 0.5
v 1.5 2.5 0.4
v 1.5 2.6 0.4
v 1.6 2.5 0.4
v 1.6 2.6 0.4
v 1.5 2.4 0.3
v 1.5 2.5 0.3
v 1.6 2.4 0.3
v 1.6 2.5 0.3
v 1.5 2.3 0.2
v 1.5 2.4 0.2
v 1.6 2.3 0.2
v 1.6 2.4 0.2
v 1.5 2.2 0.1
v 1.5 2.3 0.1
v 1.6 2.2 0.1
v 1.6 2.3 0.1
v 1.5 2.1 5.21541e-008
v 1.5 2.2 5.21541e-008
v 1.6 2.1 5.21541e-008
v 1.6 2.2 5.21541e-008
v 1.5 2 -0.0999999
v 1.5 2.1 -0.0999999
v 1.6 2 -0.0999999
v 1.6 2.1 -0.0999999
v 1.5 1.9 -0.2
v 1.5 2 -0.2
v 1.6 1.9 -0.2
v 1.6 2 -0.2
v 1.5 1.8 -0.3
v 1.5 1.9 -0.3
v 1.6 1.8 -0.3
v 1.6 1.9 -0.3
v 1.5 1.7 -0.4
v 1.5 1.8 -0.4
v 1.6 1.7 -0.4
v 1.6 1.8 -0.4
v 1.5 1.6 -0.5
v 1.5 1.7 -0.5
v 1.6 1.6 -0.5
v 1.6 1.7 -0.5
v 1.5 1.5 -0.6
v 1.5 1.6 -0.6
v 1.6 1.5 -0.6
v 1.6 1.6 -0.6
v 1.5 1.4 -0.7
v 1.5 1.5 -0.7
v 1.6 1.4 -0.7
v 1.6 1.5 -0.7
v 1.5 1.3 -0.8
v 1.5 1.4 -0.8
v 1.6 1.3 -0.8
v 1.6 1.4 -0.8
v 1.3 0.7 -1.1
v 1.3 0.8 -1.1
v 1.5 0.8 -1.1
v 1.5 0.9 -1.1
v 1.5 1.6 -1.1
v 1.5 1.7 -1.1
v 1.5 1.8 -1.1
v 1.5 2.1 -1.1
v 1.5 2.2 -1.1
v 1.5 2.5 -1.1
v 1.5 2.6 -1.1
v 1.5 2.9 -1.1
v 1.5 3 -1.1
v 1.5 3.3 -1.1
v 1.6 0.9 -1.1
v 1.6 1.3 -1.1
v 1.6 1.6 -1.1
v 1.6 3.3 -1.1
v 1.7 0.7 -1.1
v 1.7 1.3 -1.1
v 1.3 0.7 1
v 1.3 0.8 1
v 1.5 0.8 1
v 1.5 0.9 1
v 1.5 1.3 1
v 1.5 1.4 1
v 1.5 1.7 1
v 1.5 1.8 1
v 1.5 2.1 1
v 1.5 2.2 1
v 1.5 2.5 1
v 1.5 2.6 1
v 1.5 2.9 1
v 1.5 3 1
v 1.5 3.1 1
v 1.6 0.9 1
v 1.6 1.3 1
v 1.6 3.1 1
v 1.7 0.7 1
v 1.7 1.3 1
v 1.5 3.2 0.6
v 1.5 3.3 0.6
v 1.6 3.2 0.6
v 1.6 3.3 0.6
v 1.5 3.1 0.5
v 1.5 3.2 0.5
v 1.6 3.1 0.5
v 1.6 3.2 0.5
v 1.5 3 0.4
v 1.5 3.1 0.4
v 1.6 3 0.4
v 1.6 3.1 0.4
v 1.5 2.9 0.3
v 1.5 3 0.3
v 1.6 2.9 0.3
v 1.6 3 0.3
v 1.5 2.8 0.2
v 1.5 2.9 0.2
v 1.6 2.8 0.2
v 1.6 2.9 0.2
v 1.5 2.7 0.1
v 1.5 2.8 0.1
v 1.6 2.7 0.1
v 1.6 2.8 0.1
v 1.5 2.6 5.21541e-008
v 1.5 2.7 5.21541e-008
v 1.6 2.6 5.21541e-008
v 1.6 2.7 5.21541e-008
v 1.5 2.5 -0.0999999
v 1.5 2.6 -0.0999999
v 1.6 2.5 -0.0999999
v 1.6 2.6 -0.0999999
v 1.5 2.4 -0.2
v 1.5 2.5 -0.2
v 1.6 2.4 -0.2
v 1.6 2.5 -0.2
v 1.5 2.3 -0.3
v 1.5 2.4 -0.3
v 1.6 2.3 -0.3
v 1.6 2.4 -0.3
v 1.5 2.2 -0.4
v 1.5 2.3 -0.4
v 1.6 2.2 -0.4
v 1.6 2.3 -0.4
v 1.5 2.1 -0.5
v 1.5 2.2 -0.5
v 1.6 2.1 -0.5
v 1.6 2.2 -0.5
v 1.5 2 -0.6
v 1.5 2.1 -0.6
v 1.6 2 -0.6
v 1.6 2.1 -0.6
v 1.5 1.9 -0.7
v 1.5 2 -0.7
v 1.6 1.9 -0.7
v 1.6 2 -0.7
v 1.5 1.8 -0.8
v 1.5 1.9 -0.8
v 1.6 1.8 -0.8
v 1.6 1.9 -0.8
v 1.5 1.7 -0.9
v 1.5 1.8 -0.9
v 1.6 1.7 -0.9
v 1.6 1.8 -0.9
v 1.5 1.6 -1
v 1.5 1.7 -1
v 1.6 1.6 -1
v 1.6 1.7 -1
v 1.3 0.7 -1.3
v 1.3 0.8 -1.3
v 1.3 3.3 -1.3
v 1.6 0.8 -1.3
v 1.6 1.3 -1.3
v 1.6 3.3 -1.3
v 1.7 0.7 -1.3
v 1.7 1.3 -1.3
v 1.3 0.7 1.2
v 1.7 0.7 1.2
v 1.3 0.7 1
v 1.7 0.7 1
v 1.3 0.7 -1.1
v 1.7 0.7 -1.1
v 1.3 0.7 -1.3
v 1.7 0.7 -1.3
v 1.3 0.8 1
v 1.5 0.8 1
v 1.3 0.8 -1.1
v 1.5 0.8 -1.1
v 1.5 0.9 1
v 1.6 0.9 1
v 1.5 0.9 -1.1
v 1.6 0.9 -1.1
v 1.5 1.4 -0.7
v 1.6 1.4 -0.7
v 1.5 1.4 -0.8
v 1.6 1.4 -0.8
v 1.5 1.5 -0.6
v 1.6 1.5 -0.6
v 1.5 1.5 -0.7
v 1.6 1.5 -0.7
v 1.5 1.6 -0.5
v 1.6 1.6 -0.5
v 1.5 1.6 -0.6
v 1.6 1.6 -0.6
v 1.5 1.7 -0.4
v 1.6 1.7 -0.4
v 1.5 1.7 -0.5
v 1.6 1.7 -0.5
v 1.5 1.8 -0.3
v 1.6 1.8 -0.3
v 1.5 1.8 -0.4
v 1.6 1.8 -0.4
v 1.5 1.9 -0.2
v 1.6 1.9 -0.2
v 1.5 1.9 -0.3
v 1.6 1.9 -0.3
v 1.5 2 -0.0999999
v 1.6 2 -0.0999999
v 1.5 2 -0.2
v 1.6 2 -0.2
v 1.5 2.1 5.21541e-008
v 1.6 2.1 5.21541e-008
v 1.5 2.1 -0.0999999
v 1.6 2.1 -0.0999999
v 1.5 2.2 0.1
v 1.6 2.2 0.1
v 1.5 2.2 5.21541e-008
v 1.6 2.2 5.21541e-008
v 1.5 2.3 0.2
v 1.6 2.3 0.2
v 1.5 2.3 0.1
v 1.6 2.3 0.1
v 1.5 2.4 0.3
v 1.6 2.4 0.3
v 1.5 2.4 0.2
v 1.6 2.4 0.2
v 1.5 2.5 0.4
v 1.6 2.5 0.4
v 1.5 2.5 0.3
v 1.6 2.5 0.3
v 1.5 2.6 0.5
v 1.6 2.6 0.5
v 1.5 2.6 0.4
v 1.6 2.6 0.4
v 1.5 2.7 0.6
v 1.6 2.7 0.6
v 1.5 2.7 0.5
v 1.6 2.7 0.5
v 1.5 2.8 0.7
v 1.6 2.8 0.7
v 1.5 2.8 0.6
v 1.6 2.8 0.6
v 1.5 2.9 0.8
v 1.6 2.9 0.8
v 1.5 2.9 0.7
v 1.6 2.9 0.7
v 1.5 3 0.9
v 1.6 3 0.9
v 1.5 3 0.8
v 1.6 3 0.8
v 1.5 3.1 1
v 1.6 3.1 1
v 1.5 3.1 0.9
v 1.6 3.1 0.9
v 1.6 1.3 1.2
v 1.7 1.3 1.2
v 1.5 1.3 1
v 1.6 1.3 1
v 1.7 1.3 1
v 1.5 1.3 -0.8
v 1.6 1.3 -0.8
v 1.6 1.3 -1.1
v 1.7 1.3 -1.1
v 1.6 1.3 -1.3
v 1.7 1.3 -1.3
v 1.5 1.6 -1
v 1.6 1.6 -1
v 1.5 1.6 -1.1
v 1.6 1.6 -1.1
v 1.5 1.7 -0.9
v 1.6 1.7 -0.9
v 1.5 1.7 -1
v 1.6 1.7 -1
v 1.5 1.8 -0.8
v 1.6 1.8 -0.8
v 1.5 1.8 -0.9
v 1.6 1.8 -0.9
v 1.5 1.9 -0.7
v 1.6 1.9 -0.7
v 1.5 1.9 -0.8
v 1.6 1.9 -0.8
v 1.5 2 -0.6
v 1.6 2 -0.6
v 1.5 2 -0.7
v 1.6 2 -0.7
v 1.5 2.1 -0.5
v 1.6 2.1 -0.5
v 1.5 2.1 -0.6
v 1.6 2.1 -0.6
v 1.5 2.2 -0.4
v 1.6 2.2 -0.4
v 1.5 2.2 -0.5
v 1.6 2.2 -0.5
v 1.5 2.3 -0.3
v 1.6 2.3 -0.3
v 1.5 2.3 -0.4
v 1.6 2.3 -0.4
v 1.5 2.4 -0.2
v 1.6 2.4 -0.2
v 1.5 2.4 -0.3
v 1.6 2.4 -0.3
v 1.5 2.5 -0.0999999
v 1.6 2.5 -0.0999999
v 1.5 2.5 -0.2
v 1.6 2.5 -0.2
v 1.5 2.6 5.21541e-008
v 1.6 2.6 5.21541e-008
v 1.5 2.6 -0.0999999
v 1.6 2.6 -0.0999999
v 1.5 2.7 0.1
v 1.6 2.7 0.1
v 1.5 2.7 5.21541e-008
v 1.6 2.7 5.21541e-008
v 1.5 2.8 0.2
v 1.6 2.8 0.2
v 1.5 2.8 0.1
v 1.6 2.8 0.1
v 1.5 2.9 0.3
v 1.6 2.9 0.3
v 1.5 2.9 0.2
v 1.6 2.9 0.2
v 1.5 3 0.4
v 1.6 3 0.4
v 1.5 3 0.3
v 1.6 3 0.3
v 1.5 3.1 0.5
v 1.6 3.1 0.5
v 1.5 3.1 0.4
v 1.6 3.1 0.4
v 1.5 3.2 0.6
v 1.6 3.2 0.6
v 1.5 3.2 0.5
v 1.6 3.2 0.5
v 1.3 3.3 1.2
v 1.6 3.3 1.2
v 1.5 3.3 0.6
v 1.6 3.3 0.6
v 1.5 3.3 -1.1
v 1.6 3.3 -1.1
v 1.3 3.3 -1.3
v 1.6 3.3 -1.3

# faces
f 5/3/1 2/3/1 1/3/1
f 6/3/1 2/3/1 5/3/1
f 7/3/1 4/3/1 3/3/1
f 8/3/1 4/3/1 7/3/1
f 9/1/1 6/1/1 5/1/1
f 9/1/1 7/1/1 6/1/1
f 9/1/1 8/1/1 7/1/1
f 10/1/1 8/1/1 9/1/1
f 11/1/2 12/1/2 13/1/2
f 13/1/2 12/1/2 14/1/2
f 15/2/2 16/2/2 17/2/2
f 17/2/2 16/2/2 18/2/2
f 18/2/2 16/2/2 19/2/2
f 17/1/2 18/1/2 20/1/2
f 20/1/2 18/1/2 21/1/2
f 17/1/2 20/1/2 22/1/2
f 22/1/2 20/1/2 23/1/2
f 17/1/2 22/1/2 26/1/2
f 26/1/2 22/1/2 27/1/2
f 27/1/2 22/1/2 28/1/2
f 24/1/2 25/1/2 30/1/2
f 30/1/2 25/1/2 31/1/2
f 26/2/2 27/2/2 32/2/2
f 32/2/2 27/2/2 33/2/2
f 33/2/2 27/2/2 34/2/2
f 30/2/2 31/2/2 36/2/2
f 29/2/2 30/2/2 36/2/2
f 36/2/2 31/2/2 37/2/2
f 32/1/2 33/1/2 38/1/2
f 38/1/2 33/1/2 39/1/2
f 36/1/2 37/1/2 41/1/2
f 35/1/2 36/1/2 41/1/2
f 32/1/2 38/1/2 42/1/2
f 42/1/2 38/1/2 43/1/2
f 40/1/2 41/1/2 45/1/2
f 32/1/2 42/1/2 46/1/2
f 46/1/2 42/1/2 47/1/2
f 47/1/2 42/1/2 48/1/2
f 44/1/2 45/1/2 50/1/2
f 41/1/2 37/1/2 51/1/2
f 45/1/2 41/1/2 51/1/2
f 50/1/2 45/1/2 51/1/2
f 46/2/2 47/2/2 52/2/2
f 52/2/2 47/2/2 53/2/2
f 53/2/2 47/2/2 54/2/2
f 49/2/2 50/2/2 56/2/2
f 50/2/2 51/2/2 56/2/2
f 56/2/2 51/2/2 57/2/2
f 52/1/2 53/1/2 58/1/2
f 58/1/2 53/1/2 59/1/2
f 56/1/2 57/1/2 61/1/2
f 55/1/2 56/1/2 61/1/2
f 52/1/2 58/1/2 62/1/2
f 62/1/2 58/1/2 63/1/2
f 60/1/2 61/1/2 65/1/2
f 52/1/2 62/1/2 66/1/2
f 66/1/2 62/1/2 67/1/2
f 67/1/2 62/1/2 68/1/2
f 64/1/2 65/1/2 70/1/2
f 61/1/2 57/1/2 71/1/2
f 65/1/2 61/1/2 71/1/2
f 70/1/2 65/1/2 71/1/2
f 66/2/2 67/2/2 72/2/2
f 72/2/2 67/2/2 73/2/2
f 73/2/2 67/2/2 74/2/2
f 69/2/2 70/2/2 76/2/2
f 70/2/2 71/2/2 76/2/2
f 76/2/2 71/2/2 77/2/2
f 72/1/2 73/1/2 78/1/2
f 78/1/2 73/1/2 79/1/2
f 76/1/2 77/1/2 81/1/2
f 75/1/2 76/1/2 81/1/2
f 72/1/2 78/1/2 82/1/2
f 82/1/2 78/1/2 83/1/2
f 80/1/2 81/1/2 85/1/2
f 72/1/2 82/1/2 86/1/2
f 86/1/2 82/1/2 87/1/2
f 87/1/2 82/1/2 88/1/2
f 84/1/2 85/1/2 90/1/2
f 81/1/2 77/1/2 91/1/2
f 85/1/2 81/1/2 91/1/2
f 90/1/2 85/1/2 91/1/2
f 86/2/2 87/2/2 92/2/2
f 92/2/2 87/2/2 93/2/2
f 93/2/2 87/2/2 94/2/2
f 89/2/2 90/2/2 96/2/2
f 90/2/2 91/2/2 96/2/2
f 96/2/2 91/2/2 97/2/2
f 92/1/2 93/1/2 98/1/2
f 98/1/2 93/1/2 99/1/2
f 96/1/2 97/1/2 101/1/2
f 95/1/2 96/1/2 101/1/2
f 100/1/2 101/1/2 103/1/2
f 102/1/2 103/1/2 104/1/2
f 101/1/2 97/1/2 105/1/2
f 104/1/2 103/1/2 105/1/2
f 103/1/2 101/1/2 105/1/2
f 106/1/2 107/1/2 109/1/2
f 109/1/2 107/1/2 110/1/2
f 110/1/2 107/1/2 111/1/2
f 111/1/2 112/1/2 114/1/2
f 110/1/2 111/1/2 114/1/2
f 113/1/2 114/1/2 116/1/2
f 115/1/2 116/1/2 118/1/2
f 114/1/2 112/1/2 119/1/2
f 116/1/2 114/1/2 119/1/2
f 118/1/2 116/1/2 119/1/2
f 119/1/2 112/1/2 120/1/2
f 117/1/2 118/1/2 122/1/2
f 118/1/2 119/1/2 122/1/2
f 122/1/2 119/1/2 123/1/2
f 123/1/2 119/1/2 124/1/2
f 121/1/2 122/1/2 126/1/2
f 122/1/2 123/1/2 126/1/2
f 126/1/2 123/1/2 127/1/2
f 127/1/2 123/1/2 128/1/2
f 125/1/2 126/1/2 130/1/2
f 126/1/2 127/1/2 130/1/2
f 130/1/2 127/1/2 131/1/2
f 131/1/2 127/1/2 132/1/2
f 129/1/2 130/1/2 134/1/2
f 130/1/2 131/1/2 134/1/2
f 134/1/2 131/1/2 135/1/2
f 135/1/2 131/1/2 136/1/2
f 133/1/2 134/1/2 138/1/2
f 134/1/2 135/1/2 138/1/2
f 138/1/2 135/1/2 139/1/2
f 139/1/2 135/1/2 140/1/2
f 137/1/2 138/1/2 142/1/2
f 138/1/2 139/1/2 142/1/2
f 142/1/2 139/1/2 143/1/2
f 143/1/2 139/1/2 144/1/2
f 141/1/2 142/1/2 146/1/2
f 142/1/2 143/1/2 146/1/2
f 146/1/2 143/1/2 147/1/2
f 147/1/2 143/1/2 148/1/2
f 145/1/2 146/1/2 150/1/2
f 146/1/2 147/1/2 150/1/2
f 150/1/2 147/1/2 151/1/2
f 151/1/2 147/1/2 152/1/2
f 149/1/2 150/1/2 154/1/2
f 150/1/2 151/1/2 154/1/2
f 154/1/2 151/1/2 155/1/2
f 155/1/2 151/1/2 156/1/2
f 153/1/2 154/1/2 158/1/2
f 154/1/2 155/1/2 158/1/2
f 158/1/2 155/1/2 159/1/2
f 159/1/2 155/1/2 160/1/2
f 157/1/2 158/1/2 162/1/2
f 158/1/2 159/1/2 162/1/2
f 162/1/2 159/1/2 163/1/2
f 163/1/2 159/1/2 164/1/2
f 161/1/2 162/1/2 166/1/2
f 162/1/2 163/1/2 166/1/2
f 166/1/2 163/1/2 167/1/2
f 167/1/2 163/1/2 168/1/2
f 165/1/2 166/1/2 170/1/2
f 166/1/2 167/1/2 170/1/2
f 170/1/2 167/1/2 171/1/2
f 171/1/2 167/1/2 172/1/2
f 169/1/2 170/1/2 174/1/2
f 170/1/2 171/1/2 174/1/2
f 174/1/2 171/1/2 175/1/2
f 175/1/2 171/1/2 176/1/2
f 108/1/2 109/1/2 177/1/2
f 173/1/2 174/1/2 178/1/2
f 174/1/2 175/1/2 178/1/2
f 178/1/2 175/1/2 179/1/2
f 179/1/2 175/1/2 180/1/2
f 177/1/2 178/1/2 181/1/2
f 178/1/2 179/1/2 181/1/2
f 181/1/2 179/1/2 182/1/2
f 108/1/2 177/1/2 183/1/2
f 177/1/2 181/1/2 183/1/2
f 183/1/2 181/1/2 184/1/2
f 120/1/2 112/1/2 185/1/2
f 185/1/2 112/1/2 186/1/2
f 187/3/2 188/3/2 191/3/2
f 191/3/2 188/3/2 192/3/2
f 189/3/2 190/3/2 193/3/2
f 193/3/2 190/3/2 194/3/2
f 198/3/3 196/3/3 195/3/3
f 198/1/3 197/1/3 196/1/3
f 199/1/3 197/1/3 198/1/3
f 200/1/3 197/1/3 199/1/3
f 201/3/3 198/3/3 195/3/3
f 201/3/3 199/3/3 198/3/3
f 202/3/3 199/3/3 201/3/3
f 205/1/3 204/1/3 203/1/3
f 206/1/3 204/1/3 205/1/3
f 209/1/3 208/1/3 207/1/3
f 210/1/3 208/1/3 209/1/3
f 213/1/3 212/1/3 211/1/3
f 214/1/3 212/1/3 213/1/3
f 217/1/3 216/1/3 215/1/3
f 218/1/3 216/1/3 217/1/3
f 221/1/3 220/1/3 219/1/3
f 222/1/3 220/1/3 221/1/3
f 225/1/3 224/1/3 223/1/3
f 226/1/3 224/1/3 225/1/3
f 229/1/3 228/1/3 227/1/3
f 230/1/3 228/1/3 229/1/3
f 233/1/3 232/1/3 231/1/3
f 234/1/3 232/1/3 233/1/3
f 237/1/3 236/1/3 235/1/3
f 238/1/3 236/1/3 237/1/3
f 241/1/3 240/1/3 239/1/3
f 242/1/3 240/1/3 241/1/3
f 245/1/3 244/1/3 243/1/3
f 246/1/3 244/1/3 245/1/3
f 249/1/3 248/1/3 247/1/3
f 250/1/3 248/1/3 249/1/3
f 253/1/3 252/1/3 251/1/3
f 254/1/3 252/1/3 253/1/3
f 257/1/3 256/1/3 255/1/3
f 258/1/3 256/1/3 257/1/3
f 261/1/3 260/1/3 259/1/3
f 262/1/3 260/1/3 261/1/3
f 265/1/3 264/1/3 263/1/3
f 266/1/3 264/1/3 265/1/3
f 269/1/3 268/1/3 267/1/3
f 270/1/3 268/1/3 269/1/3
f 273/1/3 272/1/3 271/1/3
f 274/1/3 272/1/3 273/1/3
f 277/3/3 276/3/3 275/3/3
f 289/3/3 278/3/3 277/3/3
f 291/1/3 288/1/3 287/1/3
f 291/1/3 280/1/3 279/1/3
f 291/1/3 281/1/3 280/1/3
f 291/1/3 287/1/3 286/1/3
f 291/1/3 286/1/3 285/1/3
f 291/1/3 285/1/3 284/1/3
f 291/1/3 284/1/3 283/1/3
f 291/1/3 283/1/3 282/1/3
f 291/1/3 282/1/3 281/1/3
f 292/1/3 288/1/3 291/1/3
f 293/3/3 277/3/3 275/3/3
f 293/3/3 290/3/3 289/3/3
f 293/3/3 289/3/3 277/3/3
f 294/3/3 290/3/3 293/3/3
f 295/3/4 296/3/4 297/3/4
f 297/3/4 298/3/4 310/3/4
f 308/1/4 309/1/4 311/1/4
f 299/1/4 300/1/4 311/1/4
f 307/1/4 308/1/4 311/1/4
f 306/1/4 307/1/4 311/1/4
f 305/1/4 306/1/4 311/1/4
f 304/1/4 305/1/4 311/1/4
f 303/1/4 304/1/4 311/1/4
f 302/1/4 303/1/4 311/1/4
f 301/1/4 302/1/4 311/1/4
f 300/1/4 301/1/4 311/1/4
f 311/1/4 309/1/4 312/1/4
f 295/3/4 297/3/4 313/3/4
f 297/3/4 310/3/4 313/3/4
f 310/3/4 311/3/4 313/3/4
f 313/3/4 311/3/4 314/3/4
f 315/1/4 316/1/4 317/1/4
f 317/1/4 316/1/4 318/1/4
f 319/1/4 320/1/4 321/1/4
f 321/1/4 320/1/4 322/1/4
f 323/1/4 324/1/4 325/1/4
f 325/1/4 324/1/4 326/1/4
f 327/1/4 328/1/4 329/1/4
f 329/1/4 328/1/4 330/1/4
f 331/1/4 332/1/4 333/1/4
f 333/1/4 332/1/4 334/1/4
f 335/1/4 336/1/4 337/1/4
f 337/1/4 336/1/4 338/1/4
f 339/1/4 340/1/4 341/1/4
f 341/1/4 340/1/4 342/1/4
f 343/1/4 344/1/4 345/1/4
f 345/1/4 344/1/4 346/1/4
f 347/1/4 348/1/4 349/1/4
f 349/1/4 348/1/4 350/1/4
f 351/1/4 352/1/4 353/1/4
f 353/1/4 352/1/4 354/1/4
f 355/1/4 356/1/4 357/1/4
f 357/1/4 356/1/4 358/1/4
f 359/1/4 360/1/4 361/1/4
f 361/1/4 360/1/4 362/1/4
f 363/1/4 364/1/4 365/1/4
f 365/1/4 364/1/4 366/1/4
f 367/1/4 368/1/4 369/1/4
f 369/1/4 368/1/4 370/1/4
f 371/1/4 372/1/4 373/1/4
f 373/1/4 372/1/4 374/1/4
f 375/1/4 376/1/4 377/1/4
f 377/1/4 376/1/4 378/1/4
f 379/1/4 380/1/4 381/1/4
f 381/1/4 380/1/4 382/1/4
f 383/3/4 384/3/4 386/3/4
f 384/1/4 385/1/4 386/1/4
f 386/1/4 385/1/4 387/1/4
f 387/1/4 385/1/4 388/1/4
f 383/3/4 386/3/4 389/3/4
f 386/3/4 387/3/4 389/3/4
f 389/3/4 387/3/4 390/3/4
f 393/3/5 392/3/5 391/3/5
f 394/3/5 392/3/5 393/3/5
f 397/3/5 396/3/5 395/3/5
f 398/3/5 396/3/5 397/3/5
f 401/1/5 400/1/5 399/1/5
f 402/1/5 400/1/5 401/1/5
f 405/1/5 404/1/5 403/1/5
f 406/1/5 404/1/5 405/1/5
f 409/1/5 408/1/5 407/1/5
f 410/1/5 408/1/5 409/1/5
f 413/1/5 412/1/5 411/1/5
f 414/1/5 412/1/5 413/1/5
f 417/1/5 416/1/5 415/1/5
f 418/1/5 416/1/5 417/1/5
f 421/1/5 420/1/5 419/1/5
f 422/1/5 420/1/5 421/1/5
f 425/1/5 424/1/5 423/1/5
f 426/1/5 424/1/5 425/1/5
f 429/1/5 428/1/5 427/1/5
f 430/1/5 428/1/5 429/1/5
f 433/1/5 432/1/5 431/1/5
f 434/1/5 432/1/5 433/1/5
f 437/1/5 436/1/5 435/1/5
f 438/1/5 436/1/5 437/1/5
f 441/1/5 440/1/5 439/1/5
f 442/1/5 440/1/5 441/1/5
f 445/1/5 444/1/5 443/1/5
f 446/1/5 444/1/5 445/1/5
f 449/1/5 448/1/5 447/1/5
f 450/1/5 448/1/5 449/1/5
f 453/1/5 452/1/5 451/1/5
f 454/1/5 452/1/5 453/1/5
f 457/1/5 456/1/5 455/1/5
f 458/1/5 456/1/5 457/1/5
f 461/1/5 460/1/5 459/1/5
f 462/1/5 460/1/5 461/1/5
f 465/1/5 464/1/5 463/1/5
f 466/1/5 464/1/5 465/1/5
f 469/1/5 468/1/5 467/1/5
f 470/1/5 468/1/5 469/1/5
f 473/1/5 472/1/5 471/1/5
f 474/1/5 472/1/5 473/1/5
f 477/1/5 476/1/5 475/1/5
f 478/1/5 476/1/5 477/1/5
f 479/3/6 480/3/6 482/3/6
f 482/3/6 480/3/6 483/3/6
f 481/1/6 482/1/6 484/1/6
f 484/1/6 482/1/6 485/1/6
f 486/3/6 487/3/6 488/3/6
f 488/3/6 487/3/6 489/3/6
f 490/1/6 491/1/6 492/1/6
f 492/1/6 491/1/6 493/1/6
f 494/1/6 495/1/6 496/1/6
f 496/1/6 495/1/6 497/1/6
f 498/1/6 499/1/6 500/1/6
f 500/1/6 499/1/6 501/1/6
f 502/1/6 503/1/6 504/1/6
f 504/1/6 503/1/6 505/1/6
f 506/1/6 507/1/6 508/1/6
f 508/1/6 507/1/6 509/1/6
f 510/1/6 511/1/6 512/1/6
f 512/1/6 511/1/6 513/1/6
f 514/1/6 515/1/6 516/1/6
f 516/1/6 515/1/6 517/1/6
f 518/1/6 519/1/6 520/1/6
f 520/1/6 519/1/6 521/1/6
f 522/1/6 523/1/6 524/1/6
f 524/1/6 523/1/6 525/1/6
f 526/1/6 527/1/6 528/1/6
f 528/1/6 527/1/6 529/1/6
f 530/1/6 531/1/6 532/1/6
f 532/1/6 531/1/6 533/1/6
f 534/1/6 535/1/6 536/1/6
f 536/1/6 535/1/6 537/1/6
f 538/1/6 539/1/6 540/1/6
f 540/1/6 539/1/6 541/1/6
f 542/1/6 543/1/6 544/1/6
f 544/1/6 543/1/6 545/1/6
f 546/1/6 547/1/6 548/1/6
f 548/1/6 547/1/6 549/1/6
f 550/1/6 551/1/6 552/1/6
f 552/1/6 551/1/6 553/1/6
f 554/1/6 555/1/6 556/1/6
f 556/1/6 555/1/6 557/1/6
f 558/1/6 559/1/6 560/1/6
f 560/1/6 559/1/6 561/1/6
f 558/1/6 560/1/6 562/1/6
f 558/1/6 562/1/6 564/1/6
f 562/1/6 563/1/6 564/1/6
f 564/1/6 563/1/6 565/1/6
